<?xml version="1.0" encoding="utf-8" standalone="no"?>
<!DOCTYPE svg PUBLIC "-//W3C//DTD SVG 1.1//EN"
  "http://www.w3.org/Graphics/SVG/1.1/DTD/svg11.dtd">
<svg height="345.6pt" version="1.1" viewBox="0 0 460.8 345.6" width="460.8pt" xmlns="http://www.w3.org/2000/svg" xmlns:xlink="http://www.w3.org/1999/xlink">
 <metadata>
  <rdf:RDF xmlns:cc="http://creativecommons.org/ns#" xmlns:dc="http://purl.org/dc/elements/1.1/" xmlns:rdf="http://www.w3.org/1999/02/22-rdf-syntax-ns#">
   <cc:Work>
    <dc:type rdf:resource="http://purl.org/dc/dcmitype/StillImage"/>
    <dc:date>2022-01-01T11:42:29.134915</dc:date>
    <dc:format>image/svg+xml</dc:format>
    <dc:creator>
     <cc:Agent>
      <dc:title>Matplotlib v3.4.3, https://matplotlib.org/</dc:title>
     </cc:Agent>
    </dc:creator>
   </cc:Work>
  </rdf:RDF>
 </metadata>
 <defs>
  <style type="text/css">*{stroke-linecap:butt;stroke-linejoin:round;}</style>
 </defs>
 <g id="figure_1">
  <g id="patch_1">
   <path d="M 0 345.6 
L 460.8 345.6 
L 460.8 0 
L 0 0 
z
" style="fill:#ffffff;"/>
  </g>
  <g id="axes_1">
   <g id="patch_2">
    <path d="M 57.6 307.584 
L 414.72 307.584 
L 414.72 41.472 
L 57.6 41.472 
z
" style="fill:#ffffff;"/>
   </g>
   <g id="matplotlib.axis_1">
    <g id="xtick_1">
     <g id="line2d_1">
      <path clip-path="url(#p54923d3c51)" d="M 104.18087 307.584 
L 104.18087 41.472 
" style="fill:none;stroke:#b0b0b0;stroke-linecap:square;stroke-width:0.8;"/>
     </g>
     <g id="line2d_2">
      <defs>
       <path d="M 0 0 
L 0 3.5 
" id="m10a857da36" style="stroke:#000000;stroke-width:0.8;"/>
      </defs>
      <g>
       <use style="stroke:#000000;stroke-width:0.8;" x="104.18087" xlink:href="#m10a857da36" y="307.584"/>
      </g>
     </g>
     <g id="text_1">
      <!-- 0.2 -->
      <g transform="translate(96.229307 322.182437)scale(0.1 -0.1)">
       <defs>
        <path d="M 2034 4250 
Q 1547 4250 1301 3770 
Q 1056 3291 1056 2328 
Q 1056 1369 1301 889 
Q 1547 409 2034 409 
Q 2525 409 2770 889 
Q 3016 1369 3016 2328 
Q 3016 3291 2770 3770 
Q 2525 4250 2034 4250 
z
M 2034 4750 
Q 2819 4750 3233 4129 
Q 3647 3509 3647 2328 
Q 3647 1150 3233 529 
Q 2819 -91 2034 -91 
Q 1250 -91 836 529 
Q 422 1150 422 2328 
Q 422 3509 836 4129 
Q 1250 4750 2034 4750 
z
" id="DejaVuSans-30" transform="scale(0.015625)"/>
        <path d="M 684 794 
L 1344 794 
L 1344 0 
L 684 0 
L 684 794 
z
" id="DejaVuSans-2e" transform="scale(0.015625)"/>
        <path d="M 1228 531 
L 3431 531 
L 3431 0 
L 469 0 
L 469 531 
Q 828 903 1448 1529 
Q 2069 2156 2228 2338 
Q 2531 2678 2651 2914 
Q 2772 3150 2772 3378 
Q 2772 3750 2511 3984 
Q 2250 4219 1831 4219 
Q 1534 4219 1204 4116 
Q 875 4013 500 3803 
L 500 4441 
Q 881 4594 1212 4672 
Q 1544 4750 1819 4750 
Q 2544 4750 2975 4387 
Q 3406 4025 3406 3419 
Q 3406 3131 3298 2873 
Q 3191 2616 2906 2266 
Q 2828 2175 2409 1742 
Q 1991 1309 1228 531 
z
" id="DejaVuSans-32" transform="scale(0.015625)"/>
       </defs>
       <use xlink:href="#DejaVuSans-30"/>
       <use x="63.623047" xlink:href="#DejaVuSans-2e"/>
       <use x="95.410156" xlink:href="#DejaVuSans-32"/>
      </g>
     </g>
    </g>
    <g id="xtick_2">
     <g id="line2d_3">
      <path clip-path="url(#p54923d3c51)" d="M 166.288696 307.584 
L 166.288696 41.472 
" style="fill:none;stroke:#b0b0b0;stroke-linecap:square;stroke-width:0.8;"/>
     </g>
     <g id="line2d_4">
      <g>
       <use style="stroke:#000000;stroke-width:0.8;" x="166.288696" xlink:href="#m10a857da36" y="307.584"/>
      </g>
     </g>
     <g id="text_2">
      <!-- 0.4 -->
      <g transform="translate(158.337133 322.182437)scale(0.1 -0.1)">
       <defs>
        <path d="M 2419 4116 
L 825 1625 
L 2419 1625 
L 2419 4116 
z
M 2253 4666 
L 3047 4666 
L 3047 1625 
L 3713 1625 
L 3713 1100 
L 3047 1100 
L 3047 0 
L 2419 0 
L 2419 1100 
L 313 1100 
L 313 1709 
L 2253 4666 
z
" id="DejaVuSans-34" transform="scale(0.015625)"/>
       </defs>
       <use xlink:href="#DejaVuSans-30"/>
       <use x="63.623047" xlink:href="#DejaVuSans-2e"/>
       <use x="95.410156" xlink:href="#DejaVuSans-34"/>
      </g>
     </g>
    </g>
    <g id="xtick_3">
     <g id="line2d_5">
      <path clip-path="url(#p54923d3c51)" d="M 228.396522 307.584 
L 228.396522 41.472 
" style="fill:none;stroke:#b0b0b0;stroke-linecap:square;stroke-width:0.8;"/>
     </g>
     <g id="line2d_6">
      <g>
       <use style="stroke:#000000;stroke-width:0.8;" x="228.396522" xlink:href="#m10a857da36" y="307.584"/>
      </g>
     </g>
     <g id="text_3">
      <!-- 0.6 -->
      <g transform="translate(220.444959 322.182437)scale(0.1 -0.1)">
       <defs>
        <path d="M 2113 2584 
Q 1688 2584 1439 2293 
Q 1191 2003 1191 1497 
Q 1191 994 1439 701 
Q 1688 409 2113 409 
Q 2538 409 2786 701 
Q 3034 994 3034 1497 
Q 3034 2003 2786 2293 
Q 2538 2584 2113 2584 
z
M 3366 4563 
L 3366 3988 
Q 3128 4100 2886 4159 
Q 2644 4219 2406 4219 
Q 1781 4219 1451 3797 
Q 1122 3375 1075 2522 
Q 1259 2794 1537 2939 
Q 1816 3084 2150 3084 
Q 2853 3084 3261 2657 
Q 3669 2231 3669 1497 
Q 3669 778 3244 343 
Q 2819 -91 2113 -91 
Q 1303 -91 875 529 
Q 447 1150 447 2328 
Q 447 3434 972 4092 
Q 1497 4750 2381 4750 
Q 2619 4750 2861 4703 
Q 3103 4656 3366 4563 
z
" id="DejaVuSans-36" transform="scale(0.015625)"/>
       </defs>
       <use xlink:href="#DejaVuSans-30"/>
       <use x="63.623047" xlink:href="#DejaVuSans-2e"/>
       <use x="95.410156" xlink:href="#DejaVuSans-36"/>
      </g>
     </g>
    </g>
    <g id="xtick_4">
     <g id="line2d_7">
      <path clip-path="url(#p54923d3c51)" d="M 290.504348 307.584 
L 290.504348 41.472 
" style="fill:none;stroke:#b0b0b0;stroke-linecap:square;stroke-width:0.8;"/>
     </g>
     <g id="line2d_8">
      <g>
       <use style="stroke:#000000;stroke-width:0.8;" x="290.504348" xlink:href="#m10a857da36" y="307.584"/>
      </g>
     </g>
     <g id="text_4">
      <!-- 0.8 -->
      <g transform="translate(282.552785 322.182437)scale(0.1 -0.1)">
       <defs>
        <path d="M 2034 2216 
Q 1584 2216 1326 1975 
Q 1069 1734 1069 1313 
Q 1069 891 1326 650 
Q 1584 409 2034 409 
Q 2484 409 2743 651 
Q 3003 894 3003 1313 
Q 3003 1734 2745 1975 
Q 2488 2216 2034 2216 
z
M 1403 2484 
Q 997 2584 770 2862 
Q 544 3141 544 3541 
Q 544 4100 942 4425 
Q 1341 4750 2034 4750 
Q 2731 4750 3128 4425 
Q 3525 4100 3525 3541 
Q 3525 3141 3298 2862 
Q 3072 2584 2669 2484 
Q 3125 2378 3379 2068 
Q 3634 1759 3634 1313 
Q 3634 634 3220 271 
Q 2806 -91 2034 -91 
Q 1263 -91 848 271 
Q 434 634 434 1313 
Q 434 1759 690 2068 
Q 947 2378 1403 2484 
z
M 1172 3481 
Q 1172 3119 1398 2916 
Q 1625 2713 2034 2713 
Q 2441 2713 2670 2916 
Q 2900 3119 2900 3481 
Q 2900 3844 2670 4047 
Q 2441 4250 2034 4250 
Q 1625 4250 1398 4047 
Q 1172 3844 1172 3481 
z
" id="DejaVuSans-38" transform="scale(0.015625)"/>
       </defs>
       <use xlink:href="#DejaVuSans-30"/>
       <use x="63.623047" xlink:href="#DejaVuSans-2e"/>
       <use x="95.410156" xlink:href="#DejaVuSans-38"/>
      </g>
     </g>
    </g>
    <g id="xtick_5">
     <g id="line2d_9">
      <path clip-path="url(#p54923d3c51)" d="M 352.612174 307.584 
L 352.612174 41.472 
" style="fill:none;stroke:#b0b0b0;stroke-linecap:square;stroke-width:0.8;"/>
     </g>
     <g id="line2d_10">
      <g>
       <use style="stroke:#000000;stroke-width:0.8;" x="352.612174" xlink:href="#m10a857da36" y="307.584"/>
      </g>
     </g>
     <g id="text_5">
      <!-- 1.0 -->
      <g transform="translate(344.660611 322.182437)scale(0.1 -0.1)">
       <defs>
        <path d="M 794 531 
L 1825 531 
L 1825 4091 
L 703 3866 
L 703 4441 
L 1819 4666 
L 2450 4666 
L 2450 531 
L 3481 531 
L 3481 0 
L 794 0 
L 794 531 
z
" id="DejaVuSans-31" transform="scale(0.015625)"/>
       </defs>
       <use xlink:href="#DejaVuSans-31"/>
       <use x="63.623047" xlink:href="#DejaVuSans-2e"/>
       <use x="95.410156" xlink:href="#DejaVuSans-30"/>
      </g>
     </g>
    </g>
    <g id="xtick_6">
     <g id="line2d_11">
      <path clip-path="url(#p54923d3c51)" d="M 414.72 307.584 
L 414.72 41.472 
" style="fill:none;stroke:#b0b0b0;stroke-linecap:square;stroke-width:0.8;"/>
     </g>
     <g id="line2d_12">
      <g>
       <use style="stroke:#000000;stroke-width:0.8;" x="414.72" xlink:href="#m10a857da36" y="307.584"/>
      </g>
     </g>
     <g id="text_6">
      <!-- 1.2 -->
      <g transform="translate(406.768438 322.182437)scale(0.1 -0.1)">
       <use xlink:href="#DejaVuSans-31"/>
       <use x="63.623047" xlink:href="#DejaVuSans-2e"/>
       <use x="95.410156" xlink:href="#DejaVuSans-32"/>
      </g>
     </g>
    </g>
   </g>
   <g id="matplotlib.axis_2">
    <g id="ytick_1">
     <g id="line2d_13">
      <path clip-path="url(#p54923d3c51)" d="M 57.6 306.006261 
L 414.72 306.006261 
" style="fill:none;stroke:#b0b0b0;stroke-linecap:square;stroke-width:0.8;"/>
     </g>
     <g id="line2d_14">
      <defs>
       <path d="M 0 0 
L -3.5 0 
" id="m542746f6e1" style="stroke:#000000;stroke-width:0.8;"/>
      </defs>
      <g>
       <use style="stroke:#000000;stroke-width:0.8;" x="57.6" xlink:href="#m542746f6e1" y="306.006261"/>
      </g>
     </g>
     <g id="text_7">
      <!-- 0.0 -->
      <g transform="translate(34.696875 309.80548)scale(0.1 -0.1)">
       <use xlink:href="#DejaVuSans-30"/>
       <use x="63.623047" xlink:href="#DejaVuSans-2e"/>
       <use x="95.410156" xlink:href="#DejaVuSans-30"/>
      </g>
     </g>
    </g>
    <g id="ytick_2">
     <g id="line2d_15">
      <path clip-path="url(#p54923d3c51)" d="M 57.6 274.451478 
L 414.72 274.451478 
" style="fill:none;stroke:#b0b0b0;stroke-linecap:square;stroke-width:0.8;"/>
     </g>
     <g id="line2d_16">
      <g>
       <use style="stroke:#000000;stroke-width:0.8;" x="57.6" xlink:href="#m542746f6e1" y="274.451478"/>
      </g>
     </g>
     <g id="text_8">
      <!-- 2.5 -->
      <g transform="translate(34.696875 278.250697)scale(0.1 -0.1)">
       <defs>
        <path d="M 691 4666 
L 3169 4666 
L 3169 4134 
L 1269 4134 
L 1269 2991 
Q 1406 3038 1543 3061 
Q 1681 3084 1819 3084 
Q 2600 3084 3056 2656 
Q 3513 2228 3513 1497 
Q 3513 744 3044 326 
Q 2575 -91 1722 -91 
Q 1428 -91 1123 -41 
Q 819 9 494 109 
L 494 744 
Q 775 591 1075 516 
Q 1375 441 1709 441 
Q 2250 441 2565 725 
Q 2881 1009 2881 1497 
Q 2881 1984 2565 2268 
Q 2250 2553 1709 2553 
Q 1456 2553 1204 2497 
Q 953 2441 691 2322 
L 691 4666 
z
" id="DejaVuSans-35" transform="scale(0.015625)"/>
       </defs>
       <use xlink:href="#DejaVuSans-32"/>
       <use x="63.623047" xlink:href="#DejaVuSans-2e"/>
       <use x="95.410156" xlink:href="#DejaVuSans-35"/>
      </g>
     </g>
    </g>
    <g id="ytick_3">
     <g id="line2d_17">
      <path clip-path="url(#p54923d3c51)" d="M 57.6 242.896696 
L 414.72 242.896696 
" style="fill:none;stroke:#b0b0b0;stroke-linecap:square;stroke-width:0.8;"/>
     </g>
     <g id="line2d_18">
      <g>
       <use style="stroke:#000000;stroke-width:0.8;" x="57.6" xlink:href="#m542746f6e1" y="242.896696"/>
      </g>
     </g>
     <g id="text_9">
      <!-- 5.0 -->
      <g transform="translate(34.696875 246.695914)scale(0.1 -0.1)">
       <use xlink:href="#DejaVuSans-35"/>
       <use x="63.623047" xlink:href="#DejaVuSans-2e"/>
       <use x="95.410156" xlink:href="#DejaVuSans-30"/>
      </g>
     </g>
    </g>
    <g id="ytick_4">
     <g id="line2d_19">
      <path clip-path="url(#p54923d3c51)" d="M 57.6 211.341913 
L 414.72 211.341913 
" style="fill:none;stroke:#b0b0b0;stroke-linecap:square;stroke-width:0.8;"/>
     </g>
     <g id="line2d_20">
      <g>
       <use style="stroke:#000000;stroke-width:0.8;" x="57.6" xlink:href="#m542746f6e1" y="211.341913"/>
      </g>
     </g>
     <g id="text_10">
      <!-- 7.5 -->
      <g transform="translate(34.696875 215.141132)scale(0.1 -0.1)">
       <defs>
        <path d="M 525 4666 
L 3525 4666 
L 3525 4397 
L 1831 0 
L 1172 0 
L 2766 4134 
L 525 4134 
L 525 4666 
z
" id="DejaVuSans-37" transform="scale(0.015625)"/>
       </defs>
       <use xlink:href="#DejaVuSans-37"/>
       <use x="63.623047" xlink:href="#DejaVuSans-2e"/>
       <use x="95.410156" xlink:href="#DejaVuSans-35"/>
      </g>
     </g>
    </g>
    <g id="ytick_5">
     <g id="line2d_21">
      <path clip-path="url(#p54923d3c51)" d="M 57.6 179.78713 
L 414.72 179.78713 
" style="fill:none;stroke:#b0b0b0;stroke-linecap:square;stroke-width:0.8;"/>
     </g>
     <g id="line2d_22">
      <g>
       <use style="stroke:#000000;stroke-width:0.8;" x="57.6" xlink:href="#m542746f6e1" y="179.78713"/>
      </g>
     </g>
     <g id="text_11">
      <!-- 10.0 -->
      <g transform="translate(28.334375 183.586349)scale(0.1 -0.1)">
       <use xlink:href="#DejaVuSans-31"/>
       <use x="63.623047" xlink:href="#DejaVuSans-30"/>
       <use x="127.246094" xlink:href="#DejaVuSans-2e"/>
       <use x="159.033203" xlink:href="#DejaVuSans-30"/>
      </g>
     </g>
    </g>
    <g id="ytick_6">
     <g id="line2d_23">
      <path clip-path="url(#p54923d3c51)" d="M 57.6 148.232348 
L 414.72 148.232348 
" style="fill:none;stroke:#b0b0b0;stroke-linecap:square;stroke-width:0.8;"/>
     </g>
     <g id="line2d_24">
      <g>
       <use style="stroke:#000000;stroke-width:0.8;" x="57.6" xlink:href="#m542746f6e1" y="148.232348"/>
      </g>
     </g>
     <g id="text_12">
      <!-- 12.5 -->
      <g transform="translate(28.334375 152.031567)scale(0.1 -0.1)">
       <use xlink:href="#DejaVuSans-31"/>
       <use x="63.623047" xlink:href="#DejaVuSans-32"/>
       <use x="127.246094" xlink:href="#DejaVuSans-2e"/>
       <use x="159.033203" xlink:href="#DejaVuSans-35"/>
      </g>
     </g>
    </g>
    <g id="ytick_7">
     <g id="line2d_25">
      <path clip-path="url(#p54923d3c51)" d="M 57.6 116.677565 
L 414.72 116.677565 
" style="fill:none;stroke:#b0b0b0;stroke-linecap:square;stroke-width:0.8;"/>
     </g>
     <g id="line2d_26">
      <g>
       <use style="stroke:#000000;stroke-width:0.8;" x="57.6" xlink:href="#m542746f6e1" y="116.677565"/>
      </g>
     </g>
     <g id="text_13">
      <!-- 15.0 -->
      <g transform="translate(28.334375 120.476784)scale(0.1 -0.1)">
       <use xlink:href="#DejaVuSans-31"/>
       <use x="63.623047" xlink:href="#DejaVuSans-35"/>
       <use x="127.246094" xlink:href="#DejaVuSans-2e"/>
       <use x="159.033203" xlink:href="#DejaVuSans-30"/>
      </g>
     </g>
    </g>
    <g id="ytick_8">
     <g id="line2d_27">
      <path clip-path="url(#p54923d3c51)" d="M 57.6 85.122783 
L 414.72 85.122783 
" style="fill:none;stroke:#b0b0b0;stroke-linecap:square;stroke-width:0.8;"/>
     </g>
     <g id="line2d_28">
      <g>
       <use style="stroke:#000000;stroke-width:0.8;" x="57.6" xlink:href="#m542746f6e1" y="85.122783"/>
      </g>
     </g>
     <g id="text_14">
      <!-- 17.5 -->
      <g transform="translate(28.334375 88.922001)scale(0.1 -0.1)">
       <use xlink:href="#DejaVuSans-31"/>
       <use x="63.623047" xlink:href="#DejaVuSans-37"/>
       <use x="127.246094" xlink:href="#DejaVuSans-2e"/>
       <use x="159.033203" xlink:href="#DejaVuSans-35"/>
      </g>
     </g>
    </g>
    <g id="ytick_9">
     <g id="line2d_29">
      <path clip-path="url(#p54923d3c51)" d="M 57.6 53.568 
L 414.72 53.568 
" style="fill:none;stroke:#b0b0b0;stroke-linecap:square;stroke-width:0.8;"/>
     </g>
     <g id="line2d_30">
      <g>
       <use style="stroke:#000000;stroke-width:0.8;" x="57.6" xlink:href="#m542746f6e1" y="53.568"/>
      </g>
     </g>
     <g id="text_15">
      <!-- 20.0 -->
      <g transform="translate(28.334375 57.367219)scale(0.1 -0.1)">
       <use xlink:href="#DejaVuSans-32"/>
       <use x="63.623047" xlink:href="#DejaVuSans-30"/>
       <use x="127.246094" xlink:href="#DejaVuSans-2e"/>
       <use x="159.033203" xlink:href="#DejaVuSans-30"/>
      </g>
     </g>
    </g>
   </g>
   <g id="line2d_31">
    <path clip-path="url(#p54923d3c51)" d="M 57.6 104.055652 
L 59.02991 104.055652 
L 59.387387 129.299478 
L 63.677117 129.299478 
L 64.034595 154.543304 
L 68.681802 154.543304 
L 69.039279 179.78713 
L 73.329009 179.78713 
L 73.686486 205.030957 
L 78.333694 205.030957 
L 78.691171 211.341913 
L 82.980901 211.341913 
L 83.338378 217.65287 
L 87.985586 217.65287 
L 88.343063 223.963826 
L 92.99027 223.963826 
L 93.347748 230.274783 
L 97.637477 230.274783 
L 97.994955 236.585739 
L 102.642162 236.585739 
L 102.99964 242.896696 
L 107.289369 242.896696 
L 107.646847 249.207652 
L 112.294054 249.207652 
L 112.651532 255.518609 
L 116.941261 255.518609 
L 117.298739 257.096348 
L 121.945946 257.096348 
L 122.303423 258.674087 
L 126.950631 258.674087 
L 127.308108 260.251826 
L 131.597838 260.251826 
L 131.955315 261.829565 
L 136.602523 261.829565 
L 136.96 263.407304 
L 141.24973 263.407304 
L 141.607207 264.985043 
L 146.254414 264.985043 
L 146.611892 266.562783 
L 150.901622 266.562783 
L 151.259099 268.140522 
L 155.906306 268.140522 
L 156.263784 269.718261 
L 160.910991 269.718261 
L 161.268468 271.296 
L 165.558198 271.296 
L 165.915676 272.873739 
L 170.562883 272.873739 
L 170.92036 274.451478 
L 175.21009 274.451478 
L 175.567568 276.029217 
L 180.214775 276.029217 
L 180.572252 277.606957 
L 184.861982 277.606957 
L 185.219459 279.184696 
L 189.866667 279.184696 
L 190.224144 280.762435 
L 194.871351 280.762435 
L 195.228829 281.15687 
L 199.518559 281.15687 
L 199.876036 281.551304 
L 204.523243 281.551304 
L 204.880721 281.945739 
L 209.17045 281.945739 
L 209.527928 282.340174 
L 214.175135 282.340174 
L 214.532613 282.734609 
L 218.822342 282.734609 
L 219.17982 283.129043 
L 223.827027 283.129043 
L 224.184505 283.523478 
L 228.831712 283.523478 
L 229.189189 283.917913 
L 233.478919 283.917913 
L 233.836396 284.312348 
L 238.483604 284.312348 
L 238.841081 284.706783 
L 243.130811 284.706783 
L 243.488288 285.101217 
L 248.135495 285.101217 
L 248.492973 285.495652 
L 253.14018 285.495652 
L 253.497658 285.890087 
L 257.787387 285.890087 
L 258.144865 286.284522 
L 262.792072 286.284522 
L 263.14955 286.678957 
L 267.439279 286.678957 
L 267.796757 287.073391 
L 272.443964 287.073391 
L 272.801441 287.467826 
L 277.091171 287.467826 
L 277.448649 287.862261 
L 282.095856 287.862261 
L 282.453333 288.256696 
L 287.100541 288.256696 
L 287.458018 288.65113 
L 291.747748 288.65113 
L 292.105225 289.045565 
L 296.752432 289.045565 
L 297.10991 289.44 
L 301.39964 289.44 
L 301.757117 289.834435 
L 306.404324 289.834435 
L 306.761802 290.22887 
L 311.051532 290.22887 
L 311.409009 290.623304 
L 316.056216 290.623304 
L 316.413694 291.017739 
L 321.060901 291.017739 
L 321.418378 291.412174 
L 325.708108 291.412174 
L 326.065586 291.806609 
L 330.712793 291.806609 
L 331.07027 292.201043 
L 335.36 292.201043 
L 335.717477 292.595478 
L 340.364685 292.595478 
L 340.722162 292.989913 
L 345.011892 292.989913 
L 345.369369 293.384348 
L 350.016577 293.384348 
L 350.374054 293.581565 
L 357.166126 293.581565 
L 357.523604 293.778783 
L 366.818018 293.778783 
L 367.175495 293.976 
L 376.827387 293.976 
L 377.184865 294.173217 
L 386.479279 294.173217 
L 386.836757 294.370435 
L 396.131171 294.370435 
L 396.488649 294.567652 
L 405.783063 294.567652 
L 406.140541 294.76487 
L 414.72 294.76487 
L 414.72 294.76487 
" style="fill:none;stroke:#000000;stroke-linecap:square;stroke-width:0.8;"/>
   </g>
   <g id="line2d_32">
    <path clip-path="url(#p54923d3c51)" d="M 57.6 53.568 
L 57.957477 104.055652 
L 60.102342 104.055652 
L 60.45982 116.677565 
L 62.604685 116.677565 
L 62.962162 129.299478 
L 65.107027 129.299478 
L 65.464505 141.921391 
L 67.251892 141.921391 
L 67.609369 154.543304 
L 69.754234 154.543304 
L 70.111712 167.165217 
L 72.256577 167.165217 
L 72.614054 179.78713 
L 74.758919 179.78713 
L 75.116396 192.409043 
L 76.903784 192.409043 
L 77.261261 205.030957 
L 79.406126 205.030957 
L 79.763604 208.186435 
L 81.908468 208.186435 
L 82.265946 211.341913 
L 84.410811 211.341913 
L 84.768288 214.497391 
L 86.913153 214.497391 
L 87.270631 217.65287 
L 89.058018 217.65287 
L 89.415495 220.808348 
L 91.56036 220.808348 
L 91.917838 223.963826 
L 94.062703 223.963826 
L 94.42018 227.119304 
L 96.565045 227.119304 
L 96.922523 230.274783 
L 99.067387 230.274783 
L 99.424865 233.430261 
L 101.212252 233.430261 
L 101.56973 236.585739 
L 103.714595 236.585739 
L 104.072072 239.741217 
L 106.216937 239.741217 
L 106.574414 242.896696 
L 108.719279 242.896696 
L 109.076757 246.052174 
L 110.864144 246.052174 
L 111.221622 249.207652 
L 113.366486 249.207652 
L 113.723964 252.36313 
L 115.868829 252.36313 
L 116.226306 255.518609 
L 118.371171 255.518609 
L 118.728649 256.307478 
L 120.873514 256.307478 
L 121.230991 257.096348 
L 123.018378 257.096348 
L 123.375856 257.885217 
L 125.520721 257.885217 
L 125.878198 258.674087 
L 128.023063 258.674087 
L 128.380541 259.462957 
L 130.525405 259.462957 
L 130.882883 260.251826 
L 133.027748 260.251826 
L 133.385225 261.040696 
L 135.172613 261.040696 
L 135.53009 261.829565 
L 137.674955 261.829565 
L 138.032432 262.618435 
L 140.177297 262.618435 
L 140.534775 263.407304 
L 142.67964 263.407304 
L 143.037117 264.196174 
L 144.824505 264.196174 
L 145.181982 264.985043 
L 147.326847 264.985043 
L 147.684324 265.773913 
L 149.829189 265.773913 
L 150.186667 266.562783 
L 152.331532 266.562783 
L 152.689009 267.351652 
L 154.833874 267.351652 
L 155.191351 268.140522 
L 156.978739 268.140522 
L 157.336216 268.929391 
L 159.481081 268.929391 
L 159.838559 269.718261 
L 161.983423 269.718261 
L 162.340901 270.50713 
L 164.485766 270.50713 
L 164.843243 271.296 
L 166.988108 271.296 
L 167.345586 272.08487 
L 169.132973 272.08487 
L 169.49045 272.873739 
L 171.635315 272.873739 
L 171.992793 273.662609 
L 174.137658 273.662609 
L 174.495135 274.451478 
L 176.64 274.451478 
L 176.997477 275.240348 
L 179.142342 275.240348 
L 179.49982 276.029217 
L 181.287207 276.029217 
L 181.644685 276.818087 
L 183.78955 276.818087 
L 184.147027 277.606957 
L 186.291892 277.606957 
L 186.649369 278.395826 
L 188.794234 278.395826 
L 189.151712 279.184696 
L 190.939099 279.184696 
L 191.296577 279.973565 
L 193.441441 279.973565 
L 193.798919 280.762435 
L 195.943784 280.762435 
L 196.301261 280.959652 
L 198.446126 280.959652 
L 198.803604 281.15687 
L 200.948468 281.15687 
L 201.305946 281.354087 
L 203.093333 281.354087 
L 203.450811 281.551304 
L 205.595676 281.551304 
L 205.953153 281.748522 
L 208.098018 281.748522 
L 208.455495 281.945739 
L 210.60036 281.945739 
L 210.957838 282.142957 
L 213.102703 282.142957 
L 213.46018 282.340174 
L 215.247568 282.340174 
L 215.605045 282.537391 
L 217.74991 282.537391 
L 218.107387 282.734609 
L 220.252252 282.734609 
L 220.60973 282.931826 
L 222.754595 282.931826 
L 223.112072 283.129043 
L 224.899459 283.129043 
L 225.256937 283.326261 
L 227.401802 283.326261 
L 227.759279 283.523478 
L 229.904144 283.523478 
L 230.261622 283.720696 
L 232.406486 283.720696 
L 232.763964 283.917913 
L 234.908829 283.917913 
L 235.266306 284.11513 
L 237.053694 284.11513 
L 237.411171 284.312348 
L 239.556036 284.312348 
L 239.913514 284.509565 
L 242.058378 284.509565 
L 242.415856 284.706783 
L 244.560721 284.706783 
L 244.918198 284.904 
L 247.063063 284.904 
L 247.420541 285.101217 
L 249.207928 285.101217 
L 249.565405 285.298435 
L 251.71027 285.298435 
L 252.067748 285.495652 
L 254.212613 285.495652 
L 254.57009 285.69287 
L 256.714955 285.69287 
L 257.072432 285.890087 
L 258.85982 285.890087 
L 259.217297 286.087304 
L 261.362162 286.087304 
L 261.71964 286.284522 
L 263.864505 286.284522 
L 264.221982 286.481739 
L 266.366847 286.481739 
L 266.724324 286.678957 
L 268.869189 286.678957 
L 269.226667 286.876174 
L 271.014054 286.876174 
L 271.371532 287.073391 
L 273.516396 287.073391 
L 273.873874 287.270609 
L 276.018739 287.270609 
L 276.376216 287.467826 
L 278.521081 287.467826 
L 278.878559 287.665043 
L 281.023423 287.665043 
L 281.380901 287.862261 
L 283.168288 287.862261 
L 283.525766 288.059478 
L 285.670631 288.059478 
L 286.028108 288.256696 
L 288.172973 288.256696 
L 288.53045 288.453913 
L 290.675315 288.453913 
L 291.032793 288.65113 
L 292.82018 288.65113 
L 293.177658 288.848348 
L 295.322523 288.848348 
L 295.68 289.045565 
L 297.824865 289.045565 
L 298.182342 289.242783 
L 300.327207 289.242783 
L 300.684685 289.44 
L 302.82955 289.44 
L 303.187027 289.637217 
L 304.974414 289.637217 
L 305.331892 289.834435 
L 307.476757 289.834435 
L 307.834234 290.031652 
L 309.979099 290.031652 
L 310.336577 290.22887 
L 312.481441 290.22887 
L 312.838919 290.426087 
L 314.983784 290.426087 
L 315.341261 290.623304 
L 317.128649 290.623304 
L 317.486126 290.820522 
L 319.630991 290.820522 
L 319.988468 291.017739 
L 322.133333 291.017739 
L 322.490811 291.214957 
L 324.635676 291.214957 
L 324.993153 291.412174 
L 327.138018 291.412174 
L 327.495495 291.609391 
L 329.282883 291.609391 
L 329.64036 291.806609 
L 331.785225 291.806609 
L 332.142703 292.003826 
L 334.287568 292.003826 
L 334.645045 292.201043 
L 336.78991 292.201043 
L 337.147387 292.398261 
L 338.934775 292.398261 
L 339.292252 292.595478 
L 341.437117 292.595478 
L 341.794595 292.792696 
L 343.939459 292.792696 
L 344.296937 292.989913 
L 346.441802 292.989913 
L 346.799279 293.18713 
L 348.944144 293.18713 
L 349.301622 293.384348 
L 355.021261 293.482957 
L 355.736216 293.581565 
L 364.673153 293.680174 
L 365.388108 293.778783 
L 374.325045 293.877391 
L 375.04 293.976 
L 383.976937 294.074609 
L 384.691892 294.173217 
L 393.628829 294.271826 
L 394.343784 294.370435 
L 403.280721 294.469043 
L 403.995676 294.567652 
L 412.932613 294.666261 
L 413.647568 294.76487 
L 414.72 294.76487 
L 414.72 294.76487 
" style="fill:none;stroke:#a52a2a;stroke-linecap:square;stroke-width:0.8;"/>
   </g>
   <g id="line2d_33">
    <path clip-path="url(#p54923d3c51)" d="M 57.6 53.568 
L 58.314955 53.568 
L 58.672432 78.811826 
L 59.387387 78.811826 
L 59.744865 104.055652 
L 60.817297 104.055652 
L 61.174775 110.366609 
L 61.88973 110.366609 
L 62.247207 116.677565 
L 62.962162 116.677565 
L 63.31964 122.988522 
L 64.392072 122.988522 
L 64.74955 129.299478 
L 65.464505 129.299478 
L 65.821982 135.610435 
L 66.894414 135.610435 
L 67.251892 141.921391 
L 67.966847 141.921391 
L 68.324324 148.232348 
L 69.039279 148.232348 
L 69.396757 154.543304 
L 70.469189 154.543304 
L 70.826667 160.854261 
L 71.541622 160.854261 
L 71.899099 167.165217 
L 72.971532 167.165217 
L 73.329009 173.476174 
L 74.043964 173.476174 
L 74.401441 179.78713 
L 75.116396 179.78713 
L 75.473874 186.098087 
L 76.546306 186.098087 
L 76.903784 192.409043 
L 77.618739 192.409043 
L 77.976216 198.72 
L 79.048649 198.72 
L 79.406126 205.030957 
L 80.121081 205.030957 
L 80.478559 206.608696 
L 81.193514 206.608696 
L 81.550991 208.186435 
L 82.623423 208.186435 
L 82.980901 209.764174 
L 83.695856 209.764174 
L 84.053333 211.341913 
L 85.125766 211.341913 
L 85.483243 212.919652 
L 86.198198 212.919652 
L 86.555676 214.497391 
L 87.270631 214.497391 
L 87.628108 216.07513 
L 88.700541 216.07513 
L 89.058018 217.65287 
L 89.772973 217.65287 
L 90.13045 219.230609 
L 90.845405 219.230609 
L 91.202883 220.808348 
L 92.275315 220.808348 
L 92.632793 222.386087 
L 93.347748 222.386087 
L 93.705225 223.963826 
L 94.777658 223.963826 
L 95.135135 225.541565 
L 95.85009 225.541565 
L 96.207568 227.119304 
L 96.922523 227.119304 
L 97.28 228.697043 
L 98.352432 228.697043 
L 98.70991 230.274783 
L 99.424865 230.274783 
L 99.782342 231.852522 
L 100.854775 231.852522 
L 101.212252 233.430261 
L 101.927207 233.430261 
L 102.284685 235.008 
L 102.99964 235.008 
L 103.357117 236.585739 
L 104.42955 236.585739 
L 104.787027 238.163478 
L 105.501982 238.163478 
L 105.859459 239.741217 
L 106.931892 239.741217 
L 107.289369 241.318957 
L 108.004324 241.318957 
L 108.361802 242.896696 
L 109.076757 242.896696 
L 109.434234 244.474435 
L 110.506667 244.474435 
L 110.864144 246.052174 
L 111.579099 246.052174 
L 111.936577 247.629913 
L 113.009009 247.629913 
L 113.366486 249.207652 
L 114.081441 249.207652 
L 114.438919 250.785391 
L 115.153874 250.785391 
L 115.511351 252.36313 
L 116.583784 252.36313 
L 116.941261 253.94087 
L 117.656216 253.94087 
L 118.013694 255.518609 
L 119.086126 255.518609 
L 119.443604 255.913043 
L 120.158559 255.913043 
L 120.516036 256.307478 
L 121.230991 256.307478 
L 121.588468 256.701913 
L 122.660901 256.701913 
L 123.018378 257.096348 
L 123.733333 257.096348 
L 124.090811 257.490783 
L 125.163243 257.490783 
L 125.520721 257.885217 
L 126.235676 257.885217 
L 126.593153 258.279652 
L 127.308108 258.279652 
L 127.665586 258.674087 
L 128.738018 258.674087 
L 129.095495 259.068522 
L 129.81045 259.068522 
L 130.167928 259.462957 
L 130.882883 259.462957 
L 131.24036 259.857391 
L 132.312793 259.857391 
L 132.67027 260.251826 
L 133.385225 260.251826 
L 133.742703 260.646261 
L 134.815135 260.646261 
L 135.172613 261.040696 
L 135.887568 261.040696 
L 136.245045 261.43513 
L 136.96 261.43513 
L 137.317477 261.829565 
L 138.38991 261.829565 
L 138.747387 262.224 
L 139.462342 262.224 
L 139.81982 262.618435 
L 140.892252 262.618435 
L 141.24973 263.01287 
L 141.964685 263.01287 
L 142.322162 263.407304 
L 143.037117 263.407304 
L 143.394595 263.801739 
L 144.467027 263.801739 
L 144.824505 264.196174 
L 145.539459 264.196174 
L 145.896937 264.590609 
L 146.969369 264.590609 
L 147.326847 264.985043 
L 148.041802 264.985043 
L 148.399279 265.379478 
L 149.114234 265.379478 
L 149.471712 265.773913 
L 150.544144 265.773913 
L 150.901622 266.168348 
L 151.616577 266.168348 
L 151.974054 266.562783 
L 153.046486 266.562783 
L 153.403964 266.957217 
L 154.118919 266.957217 
L 154.476396 267.351652 
L 155.191351 267.351652 
L 155.548829 267.746087 
L 156.621261 267.746087 
L 156.978739 268.140522 
L 157.693694 268.140522 
L 158.051171 268.534957 
L 159.123604 268.534957 
L 159.481081 268.929391 
L 160.196036 268.929391 
L 160.553514 269.323826 
L 161.268468 269.323826 
L 161.625946 269.718261 
L 162.698378 269.718261 
L 163.055856 270.112696 
L 163.770811 270.112696 
L 164.128288 270.50713 
L 164.843243 270.50713 
L 165.200721 270.901565 
L 166.273153 270.901565 
L 166.630631 271.296 
L 167.345586 271.296 
L 167.703063 271.690435 
L 168.775495 271.690435 
L 169.132973 272.08487 
L 169.847928 272.08487 
L 170.205405 272.479304 
L 170.92036 272.479304 
L 171.277838 272.873739 
L 172.35027 272.873739 
L 172.707748 273.268174 
L 173.422703 273.268174 
L 173.78018 273.662609 
L 174.852613 273.662609 
L 175.21009 274.057043 
L 175.925045 274.057043 
L 176.282523 274.451478 
L 176.997477 274.451478 
L 177.354955 274.845913 
L 178.427387 274.845913 
L 178.784865 275.240348 
L 179.49982 275.240348 
L 179.857297 275.634783 
L 180.92973 275.634783 
L 181.287207 276.029217 
L 182.002162 276.029217 
L 182.35964 276.423652 
L 183.074595 276.423652 
L 183.432072 276.818087 
L 184.504505 276.818087 
L 184.861982 277.212522 
L 185.576937 277.212522 
L 185.934414 277.606957 
L 187.006847 277.606957 
L 187.364324 278.001391 
L 188.079279 278.001391 
L 188.436757 278.395826 
L 189.151712 278.395826 
L 189.509189 278.790261 
L 190.581622 278.790261 
L 190.939099 279.184696 
L 191.654054 279.184696 
L 192.011532 279.57913 
L 193.083964 279.57913 
L 193.441441 279.973565 
L 194.156396 279.973565 
L 194.513874 280.368 
L 195.228829 280.368 
L 195.586306 280.762435 
L 197.731171 280.861043 
L 198.446126 280.959652 
L 200.233514 281.058261 
L 200.948468 281.15687 
L 202.735856 281.255478 
L 203.450811 281.354087 
L 204.880721 281.452696 
L 205.595676 281.551304 
L 207.383063 281.649913 
L 208.098018 281.748522 
L 209.885405 281.84713 
L 210.60036 281.945739 
L 212.387748 282.044348 
L 213.102703 282.142957 
L 214.89009 282.241565 
L 215.605045 282.340174 
L 217.034955 282.438783 
L 217.74991 282.537391 
L 219.537297 282.636 
L 220.252252 282.734609 
L 222.03964 282.833217 
L 222.754595 282.931826 
L 224.541982 283.030435 
L 225.256937 283.129043 
L 227.044324 283.227652 
L 227.759279 283.326261 
L 229.189189 283.42487 
L 229.904144 283.523478 
L 231.691532 283.622087 
L 232.406486 283.720696 
L 234.193874 283.819304 
L 234.908829 283.917913 
L 236.696216 284.016522 
L 237.411171 284.11513 
L 238.841081 284.213739 
L 239.556036 284.312348 
L 241.343423 284.410957 
L 242.058378 284.509565 
L 243.845766 284.608174 
L 244.560721 284.706783 
L 246.348108 284.805391 
L 247.063063 284.904 
L 248.85045 285.002609 
L 249.565405 285.101217 
L 250.995315 285.199826 
L 251.71027 285.298435 
L 253.497658 285.397043 
L 254.212613 285.495652 
L 256 285.594261 
L 256.714955 285.69287 
L 258.502342 285.791478 
L 259.217297 285.890087 
L 261.004685 285.988696 
L 261.71964 286.087304 
L 263.14955 286.185913 
L 263.864505 286.284522 
L 265.651892 286.38313 
L 266.366847 286.481739 
L 268.154234 286.580348 
L 268.869189 286.678957 
L 270.656577 286.777565 
L 271.371532 286.876174 
L 272.801441 286.974783 
L 273.516396 287.073391 
L 275.303784 287.172 
L 276.018739 287.270609 
L 277.806126 287.369217 
L 278.521081 287.467826 
L 280.308468 287.566435 
L 281.023423 287.665043 
L 282.810811 287.763652 
L 283.525766 287.862261 
L 284.955676 287.96087 
L 285.670631 288.059478 
L 287.458018 288.158087 
L 288.172973 288.256696 
L 289.96036 288.355304 
L 290.675315 288.453913 
L 292.462703 288.552522 
L 293.177658 288.65113 
L 294.965045 288.749739 
L 295.68 288.848348 
L 297.10991 288.946957 
L 297.824865 289.045565 
L 299.612252 289.144174 
L 300.327207 289.242783 
L 302.114595 289.341391 
L 302.82955 289.44 
L 304.616937 289.538609 
L 305.331892 289.637217 
L 307.119279 289.735826 
L 307.834234 289.834435 
L 309.264144 289.933043 
L 309.979099 290.031652 
L 311.766486 290.130261 
L 312.481441 290.22887 
L 314.268829 290.327478 
L 314.983784 290.426087 
L 316.771171 290.524696 
L 317.486126 290.623304 
L 318.916036 290.721913 
L 319.630991 290.820522 
L 321.418378 290.91913 
L 322.133333 291.017739 
L 323.920721 291.116348 
L 324.635676 291.214957 
L 326.423063 291.313565 
L 327.138018 291.412174 
L 328.925405 291.510783 
L 329.64036 291.609391 
L 331.07027 291.708 
L 331.785225 291.806609 
L 333.572613 291.905217 
L 334.287568 292.003826 
L 336.074955 292.102435 
L 336.78991 292.201043 
L 338.577297 292.299652 
L 339.292252 292.398261 
L 341.07964 292.49687 
L 341.794595 292.595478 
L 343.224505 292.694087 
L 343.939459 292.792696 
L 345.726847 292.891304 
L 346.441802 292.989913 
L 348.229189 293.088522 
L 348.944144 293.18713 
L 350.731532 293.285739 
L 351.446486 293.384348 
L 356.093694 293.482957 
L 357.166126 293.532261 
L 363.243243 293.63087 
L 364.315676 293.680174 
L 370.75027 293.778783 
L 371.822703 293.828087 
L 377.89982 293.926696 
L 378.972252 293.976 
L 385.049369 294.074609 
L 386.121802 294.123913 
L 392.556396 294.222522 
L 393.628829 294.271826 
L 399.705946 294.370435 
L 400.778378 294.419739 
L 406.855495 294.518348 
L 407.927928 294.567652 
L 414.362523 294.666261 
L 414.72 294.715565 
L 414.72 294.715565 
" style="fill:none;stroke:#00ffff;stroke-linecap:square;stroke-width:0.8;"/>
   </g>
   <g id="line2d_34">
    <path clip-path="url(#p54923d3c51)" d="M 57.6 53.568 
L 59.02991 74.855186 
L 60.45982 92.831432 
L 61.88973 108.213459 
L 63.31964 121.525045 
L 65.107027 135.840389 
L 66.894414 148.094036 
L 68.681802 158.701458 
L 70.469189 167.973517 
L 72.256577 176.147444 
L 74.043964 183.407417 
L 76.188829 191.115226 
L 78.333694 197.91118 
L 80.478559 203.948057 
L 82.623423 209.346306 
L 84.768288 214.202175 
L 87.270631 219.284864 
L 89.772973 223.834276 
L 92.275315 227.930155 
L 94.777658 231.637101 
L 97.637477 235.464772 
L 100.497297 238.917721 
L 103.357117 242.048406 
L 106.574414 245.238593 
L 109.791712 248.12565 
L 113.366486 251.027882 
L 116.941261 253.652966 
L 120.873514 256.265467 
L 125.163243 258.833455 
L 129.452973 261.149302 
L 134.10018 263.414499 
L 139.104865 265.611287 
L 144.467027 267.726689 
L 150.186667 269.75183 
L 156.621261 271.788374 
L 163.413333 273.703735 
L 170.92036 275.585776 
L 179.142342 277.410522 
L 188.079279 279.160846 
L 197.731171 280.82545 
L 208.455495 282.448501 
L 220.252252 284.008195 
L 233.478919 285.528322 
L 248.135495 286.984853 
L 264.579459 288.390598 
L 283.168288 289.748794 
L 303.901982 291.036189 
L 327.495495 292.273641 
L 354.306306 293.452832 
L 385.049369 294.578073 
L 414.72 295.488 
L 414.72 295.488 
" style="fill:none;stroke:#ff0000;stroke-linecap:square;stroke-width:0.4;"/>
   </g>
   <g id="patch_3">
    <path d="M 57.6 307.584 
L 57.6 41.472 
" style="fill:none;stroke:#000000;stroke-linecap:square;stroke-linejoin:miter;stroke-width:0.8;"/>
   </g>
   <g id="patch_4">
    <path d="M 414.72 307.584 
L 414.72 41.472 
" style="fill:none;stroke:#000000;stroke-linecap:square;stroke-linejoin:miter;stroke-width:0.8;"/>
   </g>
   <g id="patch_5">
    <path d="M 57.6 307.584 
L 414.72 307.584 
" style="fill:none;stroke:#000000;stroke-linecap:square;stroke-linejoin:miter;stroke-width:0.8;"/>
   </g>
   <g id="patch_6">
    <path d="M 57.6 41.472 
L 414.72 41.472 
" style="fill:none;stroke:#000000;stroke-linecap:square;stroke-linejoin:miter;stroke-width:0.8;"/>
   </g>
   <g id="legend_1">
    <g id="patch_7">
     <path d="M 330.665313 108.1845 
L 407.72 108.1845 
Q 409.72 108.1845 409.72 106.1845 
L 409.72 48.472 
Q 409.72 46.472 407.72 46.472 
L 330.665313 46.472 
Q 328.665313 46.472 328.665313 48.472 
L 328.665313 106.1845 
Q 328.665313 108.1845 330.665313 108.1845 
z
" style="fill:#ffffff;opacity:0.8;stroke:#cccccc;stroke-linejoin:miter;"/>
    </g>
    <g id="line2d_35">
     <path d="M 332.665313 54.570438 
L 352.665313 54.570438 
" style="fill:none;stroke:#000000;stroke-linecap:square;stroke-width:0.8;"/>
    </g>
    <g id="line2d_36"/>
    <g id="text_16">
     <!-- P&lt;8,0&gt; -->
     <g transform="translate(360.665313 58.070438)scale(0.1 -0.1)">
      <defs>
       <path d="M 1259 4147 
L 1259 2394 
L 2053 2394 
Q 2494 2394 2734 2622 
Q 2975 2850 2975 3272 
Q 2975 3691 2734 3919 
Q 2494 4147 2053 4147 
L 1259 4147 
z
M 628 4666 
L 2053 4666 
Q 2838 4666 3239 4311 
Q 3641 3956 3641 3272 
Q 3641 2581 3239 2228 
Q 2838 1875 2053 1875 
L 1259 1875 
L 1259 0 
L 628 0 
L 628 4666 
z
" id="DejaVuSans-50" transform="scale(0.015625)"/>
       <path d="M 4684 3150 
L 1459 2003 
L 4684 863 
L 4684 294 
L 678 1747 
L 678 2266 
L 4684 3719 
L 4684 3150 
z
" id="DejaVuSans-3c" transform="scale(0.015625)"/>
       <path d="M 750 794 
L 1409 794 
L 1409 256 
L 897 -744 
L 494 -744 
L 750 256 
L 750 794 
z
" id="DejaVuSans-2c" transform="scale(0.015625)"/>
       <path d="M 678 3150 
L 678 3719 
L 4684 2266 
L 4684 1747 
L 678 294 
L 678 863 
L 3897 2003 
L 678 3150 
z
" id="DejaVuSans-3e" transform="scale(0.015625)"/>
      </defs>
      <use xlink:href="#DejaVuSans-50"/>
      <use x="60.302734" xlink:href="#DejaVuSans-3c"/>
      <use x="144.091797" xlink:href="#DejaVuSans-38"/>
      <use x="207.714844" xlink:href="#DejaVuSans-2c"/>
      <use x="239.501953" xlink:href="#DejaVuSans-30"/>
      <use x="303.125" xlink:href="#DejaVuSans-3e"/>
     </g>
    </g>
    <g id="line2d_37">
     <path d="M 332.665313 69.248563 
L 352.665313 69.248563 
" style="fill:none;stroke:#a52a2a;stroke-linecap:square;stroke-width:0.8;"/>
    </g>
    <g id="line2d_38"/>
    <g id="text_17">
     <!-- P&lt;9,0&gt; -->
     <g transform="translate(360.665313 72.748563)scale(0.1 -0.1)">
      <defs>
       <path d="M 703 97 
L 703 672 
Q 941 559 1184 500 
Q 1428 441 1663 441 
Q 2288 441 2617 861 
Q 2947 1281 2994 2138 
Q 2813 1869 2534 1725 
Q 2256 1581 1919 1581 
Q 1219 1581 811 2004 
Q 403 2428 403 3163 
Q 403 3881 828 4315 
Q 1253 4750 1959 4750 
Q 2769 4750 3195 4129 
Q 3622 3509 3622 2328 
Q 3622 1225 3098 567 
Q 2575 -91 1691 -91 
Q 1453 -91 1209 -44 
Q 966 3 703 97 
z
M 1959 2075 
Q 2384 2075 2632 2365 
Q 2881 2656 2881 3163 
Q 2881 3666 2632 3958 
Q 2384 4250 1959 4250 
Q 1534 4250 1286 3958 
Q 1038 3666 1038 3163 
Q 1038 2656 1286 2365 
Q 1534 2075 1959 2075 
z
" id="DejaVuSans-39" transform="scale(0.015625)"/>
      </defs>
      <use xlink:href="#DejaVuSans-50"/>
      <use x="60.302734" xlink:href="#DejaVuSans-3c"/>
      <use x="144.091797" xlink:href="#DejaVuSans-39"/>
      <use x="207.714844" xlink:href="#DejaVuSans-2c"/>
      <use x="239.501953" xlink:href="#DejaVuSans-30"/>
      <use x="303.125" xlink:href="#DejaVuSans-3e"/>
     </g>
    </g>
    <g id="line2d_39">
     <path d="M 332.665313 83.926688 
L 352.665313 83.926688 
" style="fill:none;stroke:#00ffff;stroke-linecap:square;stroke-width:0.8;"/>
    </g>
    <g id="line2d_40"/>
    <g id="text_18">
     <!-- P&lt;10,0&gt; -->
     <g transform="translate(360.665313 87.426688)scale(0.1 -0.1)">
      <use xlink:href="#DejaVuSans-50"/>
      <use x="60.302734" xlink:href="#DejaVuSans-3c"/>
      <use x="144.091797" xlink:href="#DejaVuSans-31"/>
      <use x="207.714844" xlink:href="#DejaVuSans-30"/>
      <use x="271.337891" xlink:href="#DejaVuSans-2c"/>
      <use x="303.125" xlink:href="#DejaVuSans-30"/>
      <use x="366.748047" xlink:href="#DejaVuSans-3e"/>
     </g>
    </g>
    <g id="line2d_41">
     <path d="M 332.665313 98.604813 
L 352.665313 98.604813 
" style="fill:none;stroke:#ff0000;stroke-linecap:square;stroke-width:0.4;"/>
    </g>
    <g id="line2d_42"/>
    <g id="text_19">
     <!-- real -->
     <g transform="translate(360.665313 102.104813)scale(0.1 -0.1)">
      <defs>
       <path d="M 2631 2963 
Q 2534 3019 2420 3045 
Q 2306 3072 2169 3072 
Q 1681 3072 1420 2755 
Q 1159 2438 1159 1844 
L 1159 0 
L 581 0 
L 581 3500 
L 1159 3500 
L 1159 2956 
Q 1341 3275 1631 3429 
Q 1922 3584 2338 3584 
Q 2397 3584 2469 3576 
Q 2541 3569 2628 3553 
L 2631 2963 
z
" id="DejaVuSans-72" transform="scale(0.015625)"/>
       <path d="M 3597 1894 
L 3597 1613 
L 953 1613 
Q 991 1019 1311 708 
Q 1631 397 2203 397 
Q 2534 397 2845 478 
Q 3156 559 3463 722 
L 3463 178 
Q 3153 47 2828 -22 
Q 2503 -91 2169 -91 
Q 1331 -91 842 396 
Q 353 884 353 1716 
Q 353 2575 817 3079 
Q 1281 3584 2069 3584 
Q 2775 3584 3186 3129 
Q 3597 2675 3597 1894 
z
M 3022 2063 
Q 3016 2534 2758 2815 
Q 2500 3097 2075 3097 
Q 1594 3097 1305 2825 
Q 1016 2553 972 2059 
L 3022 2063 
z
" id="DejaVuSans-65" transform="scale(0.015625)"/>
       <path d="M 2194 1759 
Q 1497 1759 1228 1600 
Q 959 1441 959 1056 
Q 959 750 1161 570 
Q 1363 391 1709 391 
Q 2188 391 2477 730 
Q 2766 1069 2766 1631 
L 2766 1759 
L 2194 1759 
z
M 3341 1997 
L 3341 0 
L 2766 0 
L 2766 531 
Q 2569 213 2275 61 
Q 1981 -91 1556 -91 
Q 1019 -91 701 211 
Q 384 513 384 1019 
Q 384 1609 779 1909 
Q 1175 2209 1959 2209 
L 2766 2209 
L 2766 2266 
Q 2766 2663 2505 2880 
Q 2244 3097 1772 3097 
Q 1472 3097 1187 3025 
Q 903 2953 641 2809 
L 641 3341 
Q 956 3463 1253 3523 
Q 1550 3584 1831 3584 
Q 2591 3584 2966 3190 
Q 3341 2797 3341 1997 
z
" id="DejaVuSans-61" transform="scale(0.015625)"/>
       <path d="M 603 4863 
L 1178 4863 
L 1178 0 
L 603 0 
L 603 4863 
z
" id="DejaVuSans-6c" transform="scale(0.015625)"/>
      </defs>
      <use xlink:href="#DejaVuSans-72"/>
      <use x="38.863281" xlink:href="#DejaVuSans-65"/>
      <use x="100.386719" xlink:href="#DejaVuSans-61"/>
      <use x="161.666016" xlink:href="#DejaVuSans-6c"/>
     </g>
    </g>
   </g>
  </g>
 </g>
 <defs>
  <clipPath id="p54923d3c51">
   <rect height="266.112" width="357.12" x="57.6" y="41.472"/>
  </clipPath>
 </defs>
</svg>
