<svg viewBox="0 0 600 400" xmlns="http://www.w3.org/2000/svg">
<g transform="translate(72, 364)">
<g>
<g>
<path d="M0,-340 L0,-340 L2.4,-338.3 L4.8,-336.6 L7.2,-334.9 L9.6,-333.2 L12,-331.5 L14.4,-329.8 L16.8,-328.1 L19.2,-326.4 L21.6,-324.7 L24,-323 L26.4,-321.3 L28.8,-319.6 L31.2,-317.9 L33.6,-316.2 L36,-314.5 L38.4,-312.8 L40.8,-311.1 L43.2,-309.4 L45.6,-307.7 L48,-306 L50.4,-304.3 L52.8,-302.6 L55.2,-300.9 L57.6,-299.2 L60,-297.5 L62.4,-295.8 L64.8,-294.1 L67.2,-292.4 L69.6,-290.7 L72,-289 L74.4,-287.3 L76.8,-285.6 L79.2,-283.9 L81.6,-282.2 L84,-280.5 L86.4,-278.8 L88.8,-277.1 L91.2,-275.4 L93.6,-273.7 L96,-272 L98.4,-270.3 L100.8,-268.6 L103.2,-266.9 L105.6,-265.2 L108,-263.5 L110.4,-261.8 L112.8,-260.1 L115.2,-258.4 L117.6,-256.7 L120,-255 L122.4,-253.3 L124.8,-251.6 L127.2,-249.9 L129.6,-248.2 L132,-246.5 L134.4,-244.8 L136.8,-243.1 L139.2,-241.4 L141.6,-239.7 L144,-238 L146.4,-236.3 L148.8,-234.6 L151.2,-232.9 L153.6,-231.2 L156,-229.5 L158.4,-227.8 L160.8,-226.1 L163.2,-224.4 L165.6,-222.7 L168,-221 L170.4,-219.3 L172.8,-217.6 L175.2,-215.9 L177.6,-214.2 L180,-212.5 L182.4,-210.8 L184.8,-209.1 L187.2,-207.4 L189.6,-205.7 L192,-204 L194.4,-202.3 L196.8,-200.6 L199.2,-198.9 L201.6,-197.2 L204,-195.5 L206.4,-193.8 L208.8,-192.1 L211.2,-190.4 L213.6,-188.7 L216,-187 L218.4,-185.3 L220.8,-183.6 L223.2,-181.9 L225.6,-180.2 L228,-178.5 L230.4,-176.8 L232.8,-175.1 L235.2,-173.4 L237.6,-171.7 L240,-170 L242.4,-168.3 L244.8,-166.6 L247.2,-164.9 L249.6,-163.2 L252,-161.5 L254.4,-159.8 L256.8,-158.1 L259.2,-156.4 L261.6,-154.7 L264,-153 L266.4,-151.3 L268.8,-149.6 L271.2,-147.9 L273.6,-146.2 L276,-144.5 L278.4,-142.8 L280.8,-141.1 L283.2,-139.4 L285.6,-137.7 L288,-136 L290.4,-134.3 L292.8,-132.6 L295.2,-130.9 L297.6,-129.2 L300,-127.5 L302.4,-125.8 L304.8,-124.1 L307.2,-122.4 L309.6,-120.7 L312,-119 L314.4,-117.3 L316.8,-115.6 L319.2,-113.9 L321.6,-112.2 L324,-110.5 L326.4,-108.8 L328.8,-107.1 L331.2,-105.4 L333.6,-103.7 L336,-102 L338.4,-100.3 L340.8,-98.6 L343.2,-96.9 L345.6,-95.2 L348,-93.5 L350.4,-91.8 L352.8,-90.1 L355.2,-88.4 L357.6,-86.7 L360,-85 L362.4,-83.3 L364.8,-81.6 L367.2,-79.9 L369.6,-78.2 L372,-76.5 L374.4,-74.8 L376.8,-73.1 L379.2,-71.4 L381.6,-69.7 L384,-68 L386.4,-66.3 L388.8,-64.6 L391.2,-62.9 L393.6,-61.2 L396,-59.5 L398.4,-57.8 L400.8,-56.1 L403.2,-54.4 L405.6,-52.7 L408,-51 L410.4,-49.3 L412.8,-47.6 L415.2,-45.9 L417.6,-44.2 L420,-42.5 L422.4,-40.8 L424.8,-39.1 L427.2,-37.4 L429.6,-35.7 L432,-34 L434.4,-32.3 L436.8,-30.6 L439.2,-28.9 L441.6,-27.2 L444,-25.5 L446.4,-23.8 L448.8,-22.1 L451.2,-20.4 L453.6,-18.7 L456,-17 L458.4,-15.3 L460.8,-13.6 L463.2,-11.9 L465.6,-10.2 L468,-8.5 L470.4,-6.8 L472.8,-5.1 L475.2,-3.4 L477.6,-1.7 L480,-0" fill="none" stroke="red" stroke-linejoin="round" stroke-width="2"/>
</g>
</g>
<g>
<g>
<path d="M0,-340 L0,-340 L2.4,-334.6875 L4.8,-334.6875 L7.2,-334.6875 L9.6,-334.6875 L12,-329.375 L14.4,-329.375 L16.8,-329.375 L19.2,-324.0625 L21.6,-324.0625 L24,-324.0625 L26.4,-318.75 L28.8,-318.75 L31.2,-318.75 L33.6,-318.75 L36,-313.4375 L38.4,-313.4375 L40.8,-313.4375 L43.2,-308.125 L45.6,-308.125 L48,-308.125 L50.4,-302.8125 L52.8,-302.8125 L55.2,-302.8125 L57.6,-297.5 L60,-297.5 L62.4,-297.5 L64.8,-292.1875 L67.2,-292.1875 L69.6,-292.1875 L72,-286.875 L74.4,-286.875 L76.8,-286.875 L79.2,-281.5625 L81.6,-281.5625 L84,-281.5625 L86.4,-276.25 L88.8,-276.25 L91.2,-276.25 L93.6,-276.25 L96,-270.9375 L98.4,-270.9375 L100.8,-270.9375 L103.2,-265.625 L105.6,-265.625 L108,-265.625 L110.4,-260.3125 L112.8,-260.3125 L115.2,-260.3125 L117.6,-255 L120,-255 L122.4,-255 L124.8,-249.6875 L127.2,-249.6875 L129.6,-249.6875 L132,-244.375 L134.4,-244.375 L136.8,-244.375 L139.2,-239.0625 L141.6,-239.0625 L144,-239.0625 L146.4,-233.75 L148.8,-233.75 L151.2,-233.75 L153.6,-233.75 L156,-228.4375 L158.4,-228.4375 L160.8,-228.4375 L163.2,-223.125 L165.6,-223.125 L168,-223.125 L170.4,-217.8125 L172.8,-217.8125 L175.2,-217.8125 L177.6,-212.5 L180,-212.5 L182.4,-212.5 L184.8,-207.1875 L187.2,-207.1875 L189.6,-207.1875 L192,-201.875 L194.4,-201.875 L196.8,-201.875 L199.2,-196.5625 L201.6,-196.5625 L204,-196.5625 L206.4,-191.25 L208.8,-191.25 L211.2,-191.25 L213.6,-191.25 L216,-185.9375 L218.4,-185.9375 L220.8,-185.9375 L223.2,-180.625 L225.6,-180.625 L228,-180.625 L230.4,-175.3125 L232.8,-175.3125 L235.2,-175.3125 L237.6,-170 L240,-170 L242.4,-170 L244.8,-164.6875 L247.2,-164.6875 L249.6,-164.6875 L252,-159.375 L254.4,-159.375 L256.8,-159.375 L259.2,-154.0625 L261.6,-154.0625 L264,-154.0625 L266.4,-148.75 L268.8,-148.75 L271.2,-148.75 L273.6,-148.75 L276,-143.4375 L278.4,-143.4375 L280.8,-143.4375 L283.2,-138.125 L285.6,-138.125 L288,-138.125 L290.4,-132.8125 L292.8,-132.8125 L295.2,-132.8125 L297.6,-127.5 L300,-127.5 L302.4,-127.5 L304.8,-122.1875 L307.2,-122.1875 L309.6,-122.1875 L312,-116.875 L314.4,-116.875 L316.8,-116.875 L319.2,-111.5625 L321.6,-111.5625 L324,-111.5625 L326.4,-106.25 L328.8,-106.25 L331.2,-106.25 L333.6,-106.25 L336,-100.9375 L338.4,-100.9375 L340.8,-100.9375 L343.2,-95.625 L345.6,-95.625 L348,-95.625 L350.4,-90.3125 L352.8,-90.3125 L355.2,-90.3125 L357.6,-85 L360,-85 L362.4,-85 L364.8,-79.6875 L367.2,-79.6875 L369.6,-79.6875 L372,-74.375 L374.4,-74.375 L376.8,-74.375 L379.2,-69.0625 L381.6,-69.0625 L384,-69.0625 L386.4,-63.75 L388.8,-63.75 L391.2,-63.75 L393.6,-63.75 L396,-58.4375 L398.4,-58.4375 L400.8,-58.4375 L403.2,-53.125 L405.6,-53.125 L408,-53.125 L410.4,-47.8125 L412.8,-47.8125 L415.2,-47.8125 L417.6,-42.5 L420,-42.5 L422.4,-42.5 L424.8,-37.1875 L427.2,-37.1875 L429.6,-37.1875 L432,-31.875 L434.4,-31.875 L436.8,-31.875 L439.2,-26.5625 L441.6,-26.5625 L444,-26.5625 L446.4,-21.25 L448.8,-21.25 L451.2,-21.25 L453.6,-21.25 L456,-15.9375 L458.4,-15.9375 L460.8,-15.9375 L463.2,-10.625 L465.6,-10.625 L468,-10.625 L470.4,-5.3125 L472.8,-5.3125 L475.2,-5.3125 L477.6,-0 L480,-0" fill="none" stroke="blue" stroke-linejoin="round" stroke-width="2"/>
</g>
</g>
<g>
<g>
<line stroke="black" stroke-width="1" x1="0" x2="0" y1="0" y2="10"/>
<line stroke="black" stroke-width="1" x1="96" x2="96" y1="0" y2="10"/>
<line stroke="black" stroke-width="1" x1="192" x2="192" y1="0" y2="10"/>
<line stroke="black" stroke-width="1" x1="288" x2="288" y1="0" y2="10"/>
<line stroke="black" stroke-width="1" x1="384" x2="384" y1="0" y2="10"/>
<line stroke="black" stroke-width="1" x1="480" x2="480" y1="0" y2="10"/>
</g>
<line stroke="black" stroke-width="1" x1="0" x2="480" y1="0" y2="0"/>
<g>
<text font-size="12" text-anchor="middle" x="0" y="20">
0
</text>
<text font-size="12" text-anchor="middle" x="96" y="20">
0.2
</text>
<text font-size="12" text-anchor="middle" x="192" y="20">
0.4
</text>
<text font-size="12" text-anchor="middle" x="288" y="20">
0.6
</text>
<text font-size="12" text-anchor="middle" x="384" y="20">
0.8
</text>
<text font-size="12" text-anchor="middle" x="480" y="20">
1
</text>
</g>
<text font-size="12" text-anchor="middle" x="240" y="30">

</text>
</g>
<g>
<g>
<line stroke="black" stroke-width="1" x1="0" x2="-10" y1="-0" y2="-0"/>
<line stroke="black" stroke-width="1" x1="0" x2="-10" y1="-68" y2="-68"/>
<line stroke="black" stroke-width="1" x1="0" x2="-10" y1="-136" y2="-136"/>
<line stroke="black" stroke-width="1" x1="0" x2="-10" y1="-204" y2="-204"/>
<line stroke="black" stroke-width="1" x1="0" x2="-10" y1="-272" y2="-272"/>
<line stroke="black" stroke-width="1" x1="0" x2="-10" y1="-340" y2="-340"/>
</g>
<line stroke="black" stroke-width="1" x1="0" x2="0" y1="0" y2="-340"/>
<g>
<text dominant-baseline="middle" font-size="12" text-anchor="end" x="-15" y="-0">
0
</text>
<text dominant-baseline="middle" font-size="12" text-anchor="end" x="-15" y="-68">
0.2
</text>
<text dominant-baseline="middle" font-size="12" text-anchor="end" x="-15" y="-136">
0.4
</text>
<text dominant-baseline="middle" font-size="12" text-anchor="end" x="-15" y="-204">
0.6
</text>
<text dominant-baseline="middle" font-size="12" text-anchor="end" x="-15" y="-272">
0.8
</text>
<text dominant-baseline="middle" font-size="12" text-anchor="end" x="-15" y="-340">
1
</text>
</g>
<text font-size="12" text-anchor="middle" transform="rotate(-90 -36 -170)" x="-36" y="-182">

</text>
</g>
</g>
</svg>