<svg viewBox="0 0 600 400" xmlns="http://www.w3.org/2000/svg">
<g transform="translate(72, 364)">
<g>
<g>
<path d="M0,-0 L0,-0 L2.4120603,-0.02758419 L4.8241205,-0.05615092 L7.236181,-0.08573519 L9.648241,-0.11637324 L12.060302,-0.14810261 L14.472362,-0.18096218 L16.884422,-0.21499218 L19.296482,-0.25023434 L21.708542,-0.2867318 L24.120604,-0.3245293 L26.532663,-0.36367312 L28.944723,-0.40421122 L31.356785,-0.4461933 L33.768845,-0.48967078 L36.180904,-0.5346969 L38.592964,-0.58132684 L41.005024,-0.6296177 L43.417084,-0.67962873 L45.829147,-0.73142105 L48.241207,-0.78505826 L50.653267,-0.84060603 L53.065327,-0.8981323 L55.477386,-0.95770776 L57.889446,-1.0194052 L60.301506,-1.0833004 L62.71357,-1.1494713 L65.125626,-1.2179993 L67.53769,-1.2889683 L69.949745,-1.3624651 L72.36181,-1.43858 L74.77387,-1.517406 L77.18593,-1.5990398 L79.59799,-1.6835812 L82.01005,-1.7711341 L84.42211,-1.8618056 L86.83417,-1.9557067 L89.24623,-2.0529528 L91.658295,-2.1536624 L94.07035,-2.2579594 L96.482414,-2.3659716 L98.89447,-2.477831 L101.30653,-2.5936747 L103.71859,-2.7136447 L106.13065,-2.8378882 L108.54272,-2.9665573 L110.95477,-3.0998092 L113.36684,-3.2378078 L115.77889,-3.3807218 L118.190956,-3.5287263 L120.60301,-3.6820025 L123.015076,-3.8407388 L125.42714,-4.005129 L127.839195,-4.1753745 L130.25125,-4.3516846 L132.66331,-4.534274 L135.07538,-4.723368 L137.48744,-4.919197 L139.89949,-5.1220016 L142.31155,-5.3320303 L144.72362,-5.5495396 L147.13568,-5.774797 L149.54774,-6.0080776 L151.9598,-6.2496676 L154.37186,-6.4998636 L156.78392,-6.7589707 L159.19598,-7.0273075 L161.60805,-7.3052025 L164.0201,-7.5929956 L166.43216,-7.8910403 L168.84422,-8.199701 L171.25629,-8.519356 L173.66833,-8.850397 L176.0804,-9.19323 L178.49246,-9.548274 L180.90453,-9.915965 L183.31659,-10.296754 L185.72864,-10.691105 L188.1407,-11.0995035 L190.55276,-11.522449 L192.96483,-11.960459 L195.37688,-12.414071 L197.78894,-12.883841 L200.201,-13.370344 L202.61307,-13.874176 L205.02513,-14.395954 L207.43718,-14.936318 L209.84924,-15.49593 L212.2613,-16.075474 L214.67337,-16.675663 L217.08543,-17.297228 L219.49748,-17.940935 L221.90955,-18.60757 L224.32161,-19.29795 L226.73367,-20.012922 L229.14572,-20.75336 L231.55779,-21.520174 L233.96985,-22.3143 L236.38191,-23.136713 L238.79398,-23.98842 L241.20602,-24.870464 L243.61809,-25.783928 L246.03015,-26.729927 L248.44221,-27.709625 L250.85428,-28.724216 L253.26633,-29.77495 L255.67839,-30.86311 L258.09045,-31.990028 L260.5025,-33.15709 L262.91458,-34.36572 L265.32663,-35.617397 L267.7387,-36.913666 L270.15076,-38.256104 L272.5628,-39.64636 L274.97488,-41.086136 L277.38693,-42.577194 L279.79898,-44.121365 L282.21106,-45.72054 L284.6231,-47.37668 L287.0352,-49.091805 L289.44724,-50.868023 L291.85928,-52.70751 L294.27136,-54.612522 L296.6834,-56.58539 L299.0955,-58.62853 L301.50754,-60.744446 L303.9196,-62.935726 L306.33167,-65.20506 L308.7437,-67.55524 L311.1558,-69.98911 L313.56784,-72.50969 L315.9799,-75.12005 L318.39197,-77.82339 L320.80402,-80.62302 L323.2161,-83.52237 L325.62814,-86.525 L328.0402,-89.634575 L330.45227,-92.85492 L332.86432,-96.18997 L335.27637,-99.643814 L337.68845,-103.22068 L340.1005,-106.92496 L342.51257,-110.76118 L344.92462,-114.7326 L347.33667,-118.75523 L349.74875,-122.77786 L352.1608,-126.8005 L354.57288,-130.82314 L356.98492,-134.84576 L359.39697,-138.8684 L361.80905,-142.89102 L364.2211,-146.91365 L366.63318,-150.9363 L369.04523,-154.95892 L371.45728,-158.98155 L373.86935,-163.00418 L376.2814,-167.02682 L378.69348,-171.04945 L381.10553,-175.07208 L383.51758,-179.09471 L385.92966,-183.11734 L388.3417,-187.13998 L390.75375,-191.16261 L393.16583,-195.18524 L395.57788,-199.20787 L397.98996,-203.23051 L400.402,-207.25314 L402.81406,-211.27577 L405.22614,-215.2984 L407.63818,-219.32103 L410.05026,-223.34367 L412.4623,-227.3663 L414.87436,-231.38893 L417.28644,-235.41156 L419.6985,-239.4342 L422.11057,-243.45683 L424.5226,-247.47946 L426.93466,-251.50209 L429.34674,-255.52472 L431.7588,-259.54736 L434.17087,-263.56998 L436.58292,-267.59262 L438.99496,-271.61526 L441.40704,-275.63788 L443.8191,-279.66052 L446.23117,-283.68314 L448.64322,-287.70578 L451.05527,-291.72842 L453.46735,-295.75104 L455.8794,-299.77368 L458.29144,-303.79633 L460.70352,-307.81894 L463.11557,-311.84158 L465.52765,-315.8642 L467.9397,-319.88684 L470.35175,-323.9095 L472.76382,-327.9321 L475.17587,-331.95474 L477.58795,-335.97736 L480,-340" fill="none" stroke="red" stroke-linejoin="round" stroke-width="2"/>
</g>
</g>
<g>
<g>
<path d="M0,-6.4088635 L0,-6.4088635 L2.4120603,-6.4088635 L4.8241205,-6.4088635 L7.236181,-6.4088635 L9.648241,-6.4088635 L12.060302,-6.4088635 L14.472362,-6.4088635 L16.884422,-6.4088635 L19.296482,-6.4088635 L21.708542,-6.4088635 L24.120604,-6.4088635 L26.532663,-6.4088635 L28.944723,-6.4088635 L31.356785,-6.4088635 L33.768845,-6.4088635 L36.180904,-6.4088635 L38.592964,-6.4088635 L41.005024,-6.4088635 L43.417084,-6.4088635 L45.829147,-6.4088635 L48.241207,-6.4088635 L50.653267,-6.4088635 L53.065327,-6.4088635 L55.477386,-6.4088635 L57.889446,-6.4088635 L60.301506,-6.4088635 L62.71357,-6.4088635 L65.125626,-6.4088635 L67.53769,-6.4088635 L69.949745,-6.4088635 L72.36181,-6.4088635 L74.77387,-10.0005 L77.18593,-10.0005 L79.59799,-10.0005 L82.01005,-10.0005 L84.42211,-10.0005 L86.83417,-10.0005 L89.24623,-10.0005 L91.658295,-10.0005 L94.07035,-10.0005 L96.482414,-10.0005 L98.89447,-10.0005 L101.30653,-10.0005 L103.71859,-10.0005 L106.13065,-10.0005 L108.54272,-10.0005 L110.95477,-10.0005 L113.36684,-10.0005 L115.77889,-10.0005 L118.190956,-10.0005 L120.60301,-10.0005 L123.015076,-10.0005 L125.42714,-10.0005 L127.839195,-10.0005 L130.25125,-10.0005 L132.66331,-10.0005 L135.07538,-10.0005 L137.48744,-10.0005 L139.89949,-10.0005 L142.31155,-13.592135 L144.72362,-13.592135 L147.13568,-13.592135 L149.54774,-13.592135 L151.9598,-13.592135 L154.37186,-13.592135 L156.78392,-13.592135 L159.19598,-13.592135 L161.60805,-13.592135 L164.0201,-13.592135 L166.43216,-13.592135 L168.84422,-13.592135 L171.25629,-13.592135 L173.66833,-13.592135 L176.0804,-13.592135 L178.49246,-17.183771 L180.90453,-17.183771 L183.31659,-17.183771 L185.72864,-17.183771 L188.1407,-17.183771 L190.55276,-17.183771 L192.96483,-17.183771 L195.37688,-17.183771 L197.78894,-17.183771 L200.201,-17.183771 L202.61307,-17.183771 L205.02513,-17.183771 L207.43718,-17.183771 L209.84924,-17.183771 L212.2613,-17.183771 L214.67337,-17.183771 L217.08543,-20.775408 L219.49748,-20.775408 L221.90955,-20.775408 L224.32161,-20.775408 L226.73367,-24.367043 L229.14572,-24.367043 L231.55779,-24.367043 L233.96985,-24.367043 L236.38191,-24.367043 L238.79398,-24.367043 L241.20602,-24.367043 L243.61809,-27.95868 L246.03015,-27.95868 L248.44221,-27.95868 L250.85428,-27.95868 L253.26633,-31.550314 L255.67839,-31.550314 L258.09045,-31.550314 L260.5025,-35.14195 L262.91458,-35.14195 L265.32663,-35.14195 L267.7387,-35.14195 L270.15076,-38.733585 L272.5628,-38.733585 L274.97488,-38.733585 L277.38693,-42.325222 L279.79898,-42.325222 L282.21106,-45.91686 L284.6231,-45.91686 L287.0352,-49.508495 L289.44724,-53.10013 L291.85928,-53.10013 L294.27136,-56.691765 L296.6834,-56.691765 L299.0955,-60.2834 L301.50754,-60.2834 L303.9196,-63.87504 L306.33167,-63.87504 L308.7437,-67.466675 L311.1558,-74.64995 L313.56784,-74.64995 L315.9799,-78.24158 L318.39197,-78.24158 L320.80402,-81.83321 L323.2161,-81.83321 L325.62814,-89.01649 L328.0402,-96.19976 L330.45227,-96.19976 L332.86432,-99.7914 L335.27637,-99.7914 L337.68845,-106.97467 L340.1005,-106.97467 L342.51257,-114.157936 L344.92462,-114.7326 L347.33667,-118.75523 L349.74875,-122.77786 L352.1608,-126.8005 L354.57288,-130.82314 L356.98492,-134.84576 L359.39697,-138.8684 L361.80905,-142.89102 L364.2211,-146.91365 L366.63318,-150.9363 L369.04523,-154.95892 L371.45728,-158.98155 L373.86935,-163.00418 L376.2814,-167.02682 L378.69348,-171.04945 L381.10553,-175.07208 L383.51758,-179.09471 L385.92966,-183.11734 L388.3417,-187.13998 L390.75375,-191.16261 L393.16583,-195.18524 L395.57788,-199.20787 L397.98996,-203.23051 L400.402,-207.25314 L402.81406,-211.27577 L405.22614,-215.2984 L407.63818,-219.32103 L410.05026,-223.34367 L412.4623,-227.3663 L414.87436,-231.38893 L417.28644,-235.41156 L419.6985,-239.4342 L422.11057,-243.45683 L424.5226,-247.47946 L426.93466,-251.50209 L429.34674,-255.52472 L431.7588,-259.54736 L434.17087,-263.56998 L436.58292,-267.59262 L438.99496,-271.61526 L441.40704,-275.63788 L443.8191,-279.66052 L446.23117,-283.68314 L448.64322,-287.70578 L451.05527,-291.72842 L453.46735,-295.75104 L455.8794,-299.77368 L458.29144,-303.79633 L460.70352,-307.81894 L463.11557,-311.84158 L465.52765,-315.8642 L467.9397,-319.88684 L470.35175,-323.9095 L472.76382,-327.9321 L475.17587,-331.95474 L477.58795,-335.97736 L480,-340" fill="none" stroke="blue" stroke-linejoin="round" stroke-width="2"/>
</g>
</g>
<g>
<g>
<line stroke="black" stroke-width="1" x1="68.91600861450107" x2="68.91600861450107" y1="0" y2="10"/>
<line stroke="black" stroke-width="1" x1="206.7480258435032" x2="206.7480258435032" y1="0" y2="10"/>
<line stroke="black" stroke-width="1" x1="344.58004307250536" x2="344.58004307250536" y1="0" y2="10"/>
</g>
<line stroke="black" stroke-width="1" x1="0" x2="480" y1="0" y2="0"/>
<g>
<text font-size="12" text-anchor="middle" x="68.91600861450107" y="20">
-4
</text>
<text font-size="12" text-anchor="middle" x="206.7480258435032" y="20">
-2
</text>
<text font-size="12" text-anchor="middle" x="344.58004307250536" y="20">
0
</text>
</g>
<text font-size="12" text-anchor="middle" x="240" y="30">

</text>
</g>
<g>
<g>
<line stroke="black" stroke-width="1" x1="0" x2="-10" y1="-56.69176530530274" y2="-56.69176530530274"/>
<line stroke="black" stroke-width="1" x1="0" x2="-10" y1="-114.15793867136708" y2="-114.15793867136708"/>
<line stroke="black" stroke-width="1" x1="0" x2="-10" y1="-171.6241120374314" y2="-171.6241120374314"/>
<line stroke="black" stroke-width="1" x1="0" x2="-10" y1="-229.09028540349573" y2="-229.09028540349573"/>
<line stroke="black" stroke-width="1" x1="0" x2="-10" y1="-286.5564587695601" y2="-286.5564587695601"/>
</g>
<line stroke="black" stroke-width="1" x1="0" x2="0" y1="0" y2="-340"/>
<g>
<text dominant-baseline="middle" font-size="12" text-anchor="end" x="-15" y="-56.69176530530274">
-0.5
</text>
<text dominant-baseline="middle" font-size="12" text-anchor="end" x="-15" y="-114.15793867136708">
0
</text>
<text dominant-baseline="middle" font-size="12" text-anchor="end" x="-15" y="-171.6241120374314">
0.5
</text>
<text dominant-baseline="middle" font-size="12" text-anchor="end" x="-15" y="-229.09028540349573">
1
</text>
<text dominant-baseline="middle" font-size="12" text-anchor="end" x="-15" y="-286.5564587695601">
1.5
</text>
</g>
<text font-size="12" text-anchor="middle" transform="rotate(-90 -48 -170)" x="-48" y="-182">

</text>
</g>
</g>
</svg>