<svg viewBox="0 0 600 400" xmlns="http://www.w3.org/2000/svg">
<g transform="translate(72, 364)">
<g>
<g>
<path d="M0,-280.9097 L0,-280.9097 L2.4,-255.27693 L4.8,-233.73679 L7.2,-215.38156 L9.6,-199.55351 L12,-185.76433 L14.4,-173.64389 L16.8,-162.90657 L19.2,-153.3284 L21.6,-144.73128 L24,-136.97182 L26.4,-129.93329 L28.8,-123.51968 L31.2,-117.6513 L33.6,-112.26145 L36,-107.2939 L38.4,-102.70089 L40.8,-98.4416 L43.2,-94.48093 L45.6,-90.788536 L48,-87.33806 L50.4,-84.10648 L52.8,-81.07361 L55.2,-78.22166 L57.6,-75.53491 L60,-72.99942 L62.4,-70.60276 L64.8,-68.33383 L67.2,-66.18269 L69.6,-64.140396 L72,-62.198887 L74.4,-60.350887 L76.8,-58.589798 L79.2,-56.90963 L81.6,-55.304928 L84,-53.770725 L86.4,-52.30247 L88.8,-50.896004 L91.2,-49.5475 L93.6,-48.253456 L96,-47.010635 L98.4,-45.816055 L100.8,-44.666958 L103.2,-43.5608 L105.6,-42.49521 L108,-41.468002 L110.4,-40.477142 L112.8,-39.52073 L115.2,-38.597 L117.6,-37.704308 L120,-36.84111 L122.4,-36.005974 L124.8,-35.19755 L127.2,-34.41458 L129.6,-33.655876 L132,-32.92033 L134.4,-32.206898 L136.8,-31.514595 L139.2,-30.842497 L141.6,-30.189734 L144,-29.555481 L146.4,-28.938963 L148.8,-28.339447 L151.2,-27.756239 L153.6,-27.18868 L156,-26.636152 L158.4,-26.098064 L160.8,-25.573858 L163.2,-25.063002 L165.6,-24.564993 L168,-24.079355 L170.4,-23.605629 L172.8,-23.143383 L175.2,-22.692207 L177.6,-22.251705 L180,-21.821505 L182.4,-21.401249 L184.8,-20.990595 L187.2,-20.589218 L189.6,-20.19681 L192,-19.81307 L194.4,-19.437716 L196.8,-19.070475 L199.2,-18.711086 L201.6,-18.359303 L204,-18.014883 L206.4,-17.6776 L208.8,-17.347235 L211.2,-17.023575 L213.6,-16.706419 L216,-16.395575 L218.4,-16.090853 L220.8,-15.792074 L223.2,-15.499068 L225.6,-15.211668 L228,-14.929716 L230.4,-14.653057 L232.8,-14.381543 L235.2,-14.115034 L237.6,-13.853391 L240,-13.596482 L242.4,-13.344181 L244.8,-13.096364 L247.2,-12.852913 L249.6,-12.613713 L252,-12.3786545 L254.4,-12.147631 L256.8,-11.920538 L259.2,-11.697277 L261.6,-11.477752 L264,-11.261869 L266.4,-11.04954 L268.8,-10.840676 L271.2,-10.635195 L273.6,-10.433013 L276,-10.234053 L278.4,-10.038237 L280.8,-9.845492 L283.2,-9.655747 L285.6,-9.468932 L288,-9.284979 L290.4,-9.103824 L292.8,-8.925402 L295.2,-8.749653 L297.6,-8.576516 L300,-8.405934 L302.4,-8.237852 L304.8,-8.072214 L307.2,-7.9089675 L309.6,-7.7480607 L312,-7.589444 L314.4,-7.4330688 L316.8,-7.278888 L319.2,-7.126856 L321.6,-6.9769273 L324,-6.829059 L326.4,-6.6832094 L328.8,-6.539337 L331.2,-6.3974023 L333.6,-6.2573657 L336,-6.1191897 L338.4,-5.9828377 L340.8,-5.8482733 L343.2,-5.715462 L345.6,-5.5843697 L348,-5.454963 L350.4,-5.32721 L352.8,-5.201079 L355.2,-5.0765395 L357.6,-4.953561 L360,-4.8321147 L362.4,-4.712172 L364.8,-4.5937057 L367.2,-4.476688 L369.6,-4.361093 L372,-4.2468944 L374.4,-4.1340675 L376.8,-4.022588 L379.2,-3.9124308 L381.6,-3.8035736 L384,-3.695993 L386.4,-3.5896666 L388.8,-3.4845731 L391.2,-3.3806906 L393.6,-3.2779987 L396,-3.176477 L398.4,-3.0761054 L400.8,-2.9768646 L403.2,-2.8787355 L405.6,-2.7816997 L408,-2.6857388 L410.4,-2.5908353 L412.8,-2.4969716 L415.2,-2.404131 L417.6,-2.3122964 L420,-2.2214518 L422.4,-2.1315813 L424.8,-2.0426695 L427.2,-1.9547007 L429.6,-1.8676603 L432,-1.7815335 L434.4,-1.6963061 L436.8,-1.6119641 L439.2,-1.5284938 L441.6,-1.4458816 L444,-1.3641144 L446.4,-1.2831794 L448.8,-1.2030638 L451.2,-1.1237553 L453.6,-1.0452418 L456,-0.9675114 L458.4,-0.89055246 L460.8,-0.81435347 L463.2,-0.7389032 L465.6,-0.6641908 L468,-0.59020543 L470.4,-0.51693654 L472.8,-0.44437373 L475.2,-0.37250692 L477.6,-0.30132607 L480,-0.23082145" fill="none" stroke="red" stroke-linejoin="round" stroke-width="2"/>
</g>
</g>
<g>
<g>
<path d="M0,-221.81941 L0,-221.81941 L2.4,-192.27428 L4.8,-192.27428 L7.2,-192.27428 L9.6,-192.27428 L12,-162.72913 L14.4,-162.72913 L16.8,-162.72913 L19.2,-133.18398 L21.6,-133.18398 L24,-133.18398 L26.4,-103.63883 L28.8,-103.63883 L31.2,-103.63883 L33.6,-103.63883 L36,-96.25255 L38.4,-96.25255 L40.8,-96.25255 L43.2,-88.86626 L45.6,-88.86626 L48,-88.86626 L50.4,-81.47997 L52.8,-81.47997 L55.2,-81.47997 L57.6,-81.47997 L60,-74.09369 L62.4,-74.09369 L64.8,-74.09369 L67.2,-66.7074 L69.6,-66.7074 L72,-66.7074 L74.4,-59.321114 L76.8,-59.321114 L79.2,-59.321114 L81.6,-51.934826 L84,-51.934826 L86.4,-51.934826 L88.8,-51.934826 L91.2,-44.548542 L93.6,-44.548542 L96,-44.548542 L98.4,-42.70197 L100.8,-42.70197 L103.2,-42.70197 L105.6,-40.855396 L108,-40.855396 L110.4,-40.855396 L112.8,-40.855396 L115.2,-39.008827 L117.6,-39.008827 L120,-39.008827 L122.4,-37.162254 L124.8,-37.162254 L127.2,-37.162254 L129.6,-35.31568 L132,-35.31568 L134.4,-35.31568 L136.8,-33.469112 L139.2,-33.469112 L141.6,-33.469112 L144,-33.469112 L146.4,-31.62254 L148.8,-31.62254 L151.2,-31.62254 L153.6,-29.775967 L156,-29.775967 L158.4,-29.775967 L160.8,-27.929396 L163.2,-27.929396 L165.6,-27.929396 L168,-27.929396 L170.4,-26.082825 L172.8,-26.082825 L175.2,-26.082825 L177.6,-24.236252 L180,-24.236252 L182.4,-24.236252 L184.8,-22.38968 L187.2,-22.38968 L189.6,-22.38968 L192,-20.54311 L194.4,-20.54311 L196.8,-20.54311 L199.2,-20.54311 L201.6,-18.696537 L204,-18.696537 L206.4,-18.696537 L208.8,-16.849966 L211.2,-16.849966 L213.6,-16.849966 L216,-15.003394 L218.4,-15.003394 L220.8,-15.003394 L223.2,-15.003394 L225.6,-14.541752 L228,-14.541752 L230.4,-14.541752 L232.8,-14.080109 L235.2,-14.080109 L237.6,-14.080109 L240,-13.618465 L242.4,-13.618465 L244.8,-13.618465 L247.2,-13.156823 L249.6,-13.156823 L252,-13.156823 L254.4,-13.156823 L256.8,-12.69518 L259.2,-12.69518 L261.6,-12.69518 L264,-12.233537 L266.4,-12.233537 L268.8,-12.233537 L271.2,-11.771894 L273.6,-11.771894 L276,-11.771894 L278.4,-11.771894 L280.8,-11.310251 L283.2,-11.310251 L285.6,-11.310251 L288,-10.848608 L290.4,-10.848608 L292.8,-10.848608 L295.2,-10.386966 L297.6,-10.386966 L300,-10.386966 L302.4,-9.925323 L304.8,-9.925323 L307.2,-9.925323 L309.6,-9.925323 L312,-9.463679 L314.4,-9.463679 L316.8,-9.463679 L319.2,-9.002037 L321.6,-9.002037 L324,-9.002037 L326.4,-8.540394 L328.8,-8.540394 L331.2,-8.540394 L333.6,-8.540394 L336,-8.078751 L338.4,-8.078751 L340.8,-8.078751 L343.2,-7.617108 L345.6,-7.617108 L348,-7.617108 L350.4,-7.155465 L352.8,-7.155465 L355.2,-7.155465 L357.6,-7.155465 L360,-6.693822 L362.4,-6.693822 L364.8,-6.693822 L367.2,-6.232179 L369.6,-6.232179 L372,-6.232179 L374.4,-5.7705364 L376.8,-5.7705364 L379.2,-5.7705364 L381.6,-5.308893 L384,-5.308893 L386.4,-5.308893 L388.8,-5.308893 L391.2,-4.8472505 L393.6,-4.8472505 L396,-4.8472505 L398.4,-4.3856077 L400.8,-4.3856077 L403.2,-4.3856077 L405.6,-3.9239647 L408,-3.9239647 L410.4,-3.9239647 L412.8,-3.9239647 L415.2,-3.4623218 L417.6,-3.4623218 L420,-3.4623218 L422.4,-3.0006788 L424.8,-3.0006788 L427.2,-3.0006788 L429.6,-2.539036 L432,-2.539036 L434.4,-2.539036 L436.8,-2.077393 L439.2,-2.077393 L441.6,-2.077393 L444,-2.077393 L446.4,-1.6157502 L448.8,-1.6157502 L451.2,-1.6157502 L453.6,-1.1541072 L456,-1.1541072 L458.4,-1.1541072 L460.8,-0.69246435 L463.2,-0.69246435 L465.6,-0.69246435 L468,-0.69246435 L470.4,-0.23082145 L472.8,-0.23082145 L475.2,-0.23082145 L477.6,-0 L480,-0" fill="none" stroke="blue" stroke-linejoin="round" stroke-width="2"/>
</g>
</g>
<g>
<g>
<path d="M0,-340 L0,-340 L2.4,-221.81941 L4.8,-221.81941 L7.2,-221.81941 L9.6,-221.81941 L12,-192.27428 L14.4,-192.27428 L16.8,-192.27428 L19.2,-162.72913 L21.6,-162.72913 L24,-162.72913 L26.4,-133.18398 L28.8,-133.18398 L31.2,-133.18398 L33.6,-133.18398 L36,-103.63883 L38.4,-103.63883 L40.8,-103.63883 L43.2,-96.25255 L45.6,-96.25255 L48,-96.25255 L50.4,-88.86626 L52.8,-88.86626 L55.2,-88.86626 L57.6,-88.86626 L60,-81.47997 L62.4,-81.47997 L64.8,-81.47997 L67.2,-74.09369 L69.6,-74.09369 L72,-74.09369 L74.4,-66.7074 L76.8,-66.7074 L79.2,-66.7074 L81.6,-59.321114 L84,-59.321114 L86.4,-59.321114 L88.8,-59.321114 L91.2,-51.934826 L93.6,-51.934826 L96,-51.934826 L98.4,-44.548542 L100.8,-44.548542 L103.2,-44.548542 L105.6,-42.70197 L108,-42.70197 L110.4,-42.70197 L112.8,-42.70197 L115.2,-40.855396 L117.6,-40.855396 L120,-40.855396 L122.4,-39.008827 L124.8,-39.008827 L127.2,-39.008827 L129.6,-37.162254 L132,-37.162254 L134.4,-37.162254 L136.8,-35.31568 L139.2,-35.31568 L141.6,-35.31568 L144,-35.31568 L146.4,-33.469112 L148.8,-33.469112 L151.2,-33.469112 L153.6,-31.62254 L156,-31.62254 L158.4,-31.62254 L160.8,-29.775967 L163.2,-29.775967 L165.6,-29.775967 L168,-29.775967 L170.4,-27.929396 L172.8,-27.929396 L175.2,-27.929396 L177.6,-26.082825 L180,-26.082825 L182.4,-26.082825 L184.8,-24.236252 L187.2,-24.236252 L189.6,-24.236252 L192,-22.38968 L194.4,-22.38968 L196.8,-22.38968 L199.2,-22.38968 L201.6,-20.54311 L204,-20.54311 L206.4,-20.54311 L208.8,-18.696537 L211.2,-18.696537 L213.6,-18.696537 L216,-16.849966 L218.4,-16.849966 L220.8,-16.849966 L223.2,-16.849966 L225.6,-15.003394 L228,-15.003394 L230.4,-15.003394 L232.8,-14.541752 L235.2,-14.541752 L237.6,-14.541752 L240,-14.080109 L242.4,-14.080109 L244.8,-14.080109 L247.2,-13.618465 L249.6,-13.618465 L252,-13.618465 L254.4,-13.618465 L256.8,-13.156823 L259.2,-13.156823 L261.6,-13.156823 L264,-12.69518 L266.4,-12.69518 L268.8,-12.69518 L271.2,-12.233537 L273.6,-12.233537 L276,-12.233537 L278.4,-12.233537 L280.8,-11.771894 L283.2,-11.771894 L285.6,-11.771894 L288,-11.310251 L290.4,-11.310251 L292.8,-11.310251 L295.2,-10.848608 L297.6,-10.848608 L300,-10.848608 L302.4,-10.386966 L304.8,-10.386966 L307.2,-10.386966 L309.6,-10.386966 L312,-9.925323 L314.4,-9.925323 L316.8,-9.925323 L319.2,-9.463679 L321.6,-9.463679 L324,-9.463679 L326.4,-9.002037 L328.8,-9.002037 L331.2,-9.002037 L333.6,-9.002037 L336,-8.540394 L338.4,-8.540394 L340.8,-8.540394 L343.2,-8.078751 L345.6,-8.078751 L348,-8.078751 L350.4,-7.617108 L352.8,-7.617108 L355.2,-7.617108 L357.6,-7.617108 L360,-7.155465 L362.4,-7.155465 L364.8,-7.155465 L367.2,-6.693822 L369.6,-6.693822 L372,-6.693822 L374.4,-6.232179 L376.8,-6.232179 L379.2,-6.232179 L381.6,-5.7705364 L384,-5.7705364 L386.4,-5.7705364 L388.8,-5.7705364 L391.2,-5.308893 L393.6,-5.308893 L396,-5.308893 L398.4,-4.8472505 L400.8,-4.8472505 L403.2,-4.8472505 L405.6,-4.3856077 L408,-4.3856077 L410.4,-4.3856077 L412.8,-4.3856077 L415.2,-3.9239647 L417.6,-3.9239647 L420,-3.9239647 L422.4,-3.4623218 L424.8,-3.4623218 L427.2,-3.4623218 L429.6,-3.0006788 L432,-3.0006788 L434.4,-3.0006788 L436.8,-2.539036 L439.2,-2.539036 L441.6,-2.539036 L444,-2.539036 L446.4,-2.077393 L448.8,-2.077393 L451.2,-2.077393 L453.6,-1.6157502 L456,-1.6157502 L458.4,-1.6157502 L460.8,-1.1541072 L463.2,-1.1541072 L465.6,-1.1541072 L468,-1.1541072 L470.4,-0.69246435 L472.8,-0.69246435 L475.2,-0.69246435 L477.6,-0.23082145 L480,-0.23082145" fill="none" stroke="green" stroke-linejoin="round" stroke-width="2"/>
</g>
</g>
<g>
<g>
<line stroke="black" stroke-width="1" x1="0" x2="0" y1="0" y2="10"/>
<line stroke="black" stroke-width="1" x1="101.05263157894737" x2="101.05263157894737" y1="0" y2="10"/>
<line stroke="black" stroke-width="1" x1="202.10526315789474" x2="202.10526315789474" y1="0" y2="10"/>
<line stroke="black" stroke-width="1" x1="303.15789473684214" x2="303.15789473684214" y1="0" y2="10"/>
<line stroke="black" stroke-width="1" x1="404.2105263157894" x2="404.2105263157894" y1="0" y2="10"/>
</g>
<line stroke="black" stroke-width="1" x1="0" x2="480" y1="0" y2="0"/>
<g>
<text font-size="12" text-anchor="middle" x="0" y="20">
0.05
</text>
<text font-size="12" text-anchor="middle" x="101.05263157894737" y="20">
0.25
</text>
<text font-size="12" text-anchor="middle" x="202.10526315789474" y="20">
0.45
</text>
<text font-size="12" text-anchor="middle" x="303.15789473684214" y="20">
0.65
</text>
<text font-size="12" text-anchor="middle" x="404.2105263157894" y="20">
0.85
</text>
</g>
<text font-size="12" text-anchor="middle" x="240" y="30">

</text>
</g>
<g>
<g>
<line stroke="black" stroke-width="1" x1="0" x2="-10" y1="-0.00007386286490204533" y2="-0.00007386286490204533"/>
<line stroke="black" stroke-width="1" x1="0" x2="-10" y1="-59.090365784114056" y2="-59.090365784114056"/>
<line stroke="black" stroke-width="1" x1="0" x2="-10" y1="-118.1806577053632" y2="-118.1806577053632"/>
<line stroke="black" stroke-width="1" x1="0" x2="-10" y1="-177.27094962661235" y2="-177.27094962661235"/>
<line stroke="black" stroke-width="1" x1="0" x2="-10" y1="-236.36124154786154" y2="-236.36124154786154"/>
<line stroke="black" stroke-width="1" x1="0" x2="-10" y1="-295.4515334691107" y2="-295.4515334691107"/>
</g>
<line stroke="black" stroke-width="1" x1="0" x2="0" y1="0" y2="-340"/>
<g>
<text dominant-baseline="middle" font-size="12" text-anchor="end" x="-15" y="-0.00007386286490204533">
0.98438
</text>
<text dominant-baseline="middle" font-size="12" text-anchor="end" x="-15" y="-59.090365784114056">
4.98438
</text>
<text dominant-baseline="middle" font-size="12" text-anchor="end" x="-15" y="-118.1806577053632">
8.98438
</text>
<text dominant-baseline="middle" font-size="12" text-anchor="end" x="-15" y="-177.27094962661235">
12.98438
</text>
<text dominant-baseline="middle" font-size="12" text-anchor="end" x="-15" y="-236.36124154786154">
16.98438
</text>
<text dominant-baseline="middle" font-size="12" text-anchor="end" x="-15" y="-295.4515334691107">
20.98438
</text>
</g>
<text font-size="12" text-anchor="middle" transform="rotate(-90 -96 -170)" x="-96" y="-182">

</text>
</g>
</g>
</svg>