<svg viewBox="0 0 600 400" xmlns="http://www.w3.org/2000/svg">
<g transform="translate(72, 364)">
<g>
<g>
<path d="M0,-0 L0,-0 L2.4,-0.1174221 L4.8,-0.24077772 L7.2,-0.37036207 L9.6,-0.5064845 L12,-0.6494693 L14.4,-0.7996562 L16.8,-0.957401 L19.2,-1.1230764 L21.6,-1.297073 L24,-1.4797994 L26.4,-1.6716832 L28.8,-1.8731723 L31.2,-2.0847352 L33.6,-2.3068616 L36,-2.5400643 L38.4,-2.784879 L40.8,-3.0418653 L43.2,-3.3116088 L45.6,-3.59472 L48,-3.8918371 L50.4,-4.203626 L52.8,-4.530782 L55.2,-4.87403 L57.6,-5.234125 L60,-5.611855 L62.4,-6.00804 L64.8,-6.4235334 L67.2,-6.859224 L69.6,-7.316036 L72,-7.79493 L74.4,-8.296903 L76.8,-8.82299 L79.2,-9.374268 L81.6,-9.951847 L84,-10.556884 L86.4,-11.19057 L88.8,-11.854141 L91.2,-12.548873 L93.6,-13.276081 L96,-14.037125 L98.4,-14.8334 L100.8,-15.6663475 L103.2,-16.537443 L105.6,-17.448208 L108,-18.40019 L110.4,-19.394987 L112.8,-20.43422 L115.2,-21.519548 L117.6,-22.652657 L120,-23.835264 L122.4,-25.069105 L124.8,-26.35594 L127.2,-27.697544 L129.6,-29.095703 L132,-30.552212 L134.4,-32.068863 L136.8,-33.64744 L139.2,-35.289726 L141.6,-36.99748 L144,-38.77242 L146.4,-40.61625 L148.8,-42.530613 L151.2,-44.51711 L153.6,-46.577263 L156,-48.71253 L158.4,-50.92428 L160.8,-53.213776 L163.2,-55.582188 L165.6,-58.03054 L168,-60.559742 L170.4,-63.170544 L172.8,-65.86354 L175.2,-68.63914 L177.6,-71.49758 L180,-74.438896 L182.4,-77.4629 L184.8,-80.56919 L187.2,-83.75714 L189.6,-87.02586 L192,-90.37424 L194.4,-93.80086 L196.8,-97.304085 L199.2,-100.88198 L201.6,-104.53235 L204,-108.25271 L206.4,-112.04033 L208.8,-115.89217 L211.2,-119.80496 L213.6,-123.77515 L216,-127.798935 L218.4,-131.8723 L220.8,-135.99097 L223.2,-140.15047 L225.6,-144.34615 L228,-148.57318 L230.4,-152.82657 L232.8,-157.1012 L235.2,-161.39185 L237.6,-165.69324 L240,-170 L242.4,-174.30676 L244.8,-178.60815 L247.2,-182.8988 L249.6,-187.17343 L252,-191.42682 L254.4,-195.65385 L256.8,-199.84953 L259.2,-204.00903 L261.6,-208.1277 L264,-212.20107 L266.4,-216.22485 L268.8,-220.19504 L271.2,-224.10783 L273.6,-227.95967 L276,-231.74728 L278.4,-235.46765 L280.8,-239.11803 L283.2,-242.69592 L285.6,-246.19914 L288,-249.62576 L290.4,-252.97414 L292.8,-256.24286 L295.2,-259.43082 L297.6,-262.5371 L300,-265.5611 L302.4,-268.5024 L304.8,-271.36087 L307.2,-274.13647 L309.6,-276.82947 L312,-279.44025 L314.4,-281.96945 L316.8,-284.41782 L319.2,-286.78622 L321.6,-289.0757 L324,-291.28748 L326.4,-293.42273 L328.8,-295.48288 L331.2,-297.4694 L333.6,-299.38376 L336,-301.22757 L338.4,-303.00253 L340.8,-304.71027 L343.2,-306.35257 L345.6,-307.93115 L348,-309.44778 L350.4,-310.9043 L352.8,-312.30246 L355.2,-313.64407 L357.6,-314.9309 L360,-316.16473 L362.4,-317.34735 L364.8,-318.48044 L367.2,-319.56577 L369.6,-320.605 L372,-321.59982 L374.4,-322.5518 L376.8,-323.46255 L379.2,-324.33365 L381.6,-325.1666 L384,-325.9629 L386.4,-326.7239 L388.8,-327.45114 L391.2,-328.14584 L393.6,-328.80942 L396,-329.4431 L398.4,-330.04816 L400.8,-330.62573 L403.2,-331.177 L405.6,-331.7031 L408,-332.20508 L410.4,-332.68396 L412.8,-333.14078 L415.2,-333.57648 L417.6,-333.99197 L420,-334.38815 L422.4,-334.76587 L424.8,-335.12598 L427.2,-335.4692 L429.6,-335.7964 L432,-336.10815 L434.4,-336.40527 L436.8,-336.6884 L439.2,-336.95813 L441.6,-337.21512 L444,-337.45993 L446.4,-337.69315 L448.8,-337.91525 L451.2,-338.12683 L453.6,-338.3283 L456,-338.5202 L458.4,-338.70294 L460.8,-338.87692 L463.2,-339.0426 L465.6,-339.20035 L468,-339.35052 L470.4,-339.49353 L472.8,-339.62964 L475.2,-339.75922 L477.6,-339.88257 L480,-340" fill="none" stroke="red" stroke-linejoin="round" stroke-width="2"/>
</g>
</g>
<g>
<g>
<path d="M0,-19.231863 L0,-19.231863 L2.4,-19.231863 L4.8,-19.231863 L7.2,-19.231863 L9.6,-19.231863 L12,-19.231863 L14.4,-19.231863 L16.8,-19.231863 L19.2,-19.231863 L21.6,-19.231863 L24,-19.231863 L26.4,-19.231863 L28.8,-19.231863 L31.2,-19.231863 L33.6,-19.231863 L36,-19.231863 L38.4,-19.231863 L40.8,-19.231863 L43.2,-19.231863 L45.6,-19.231863 L48,-19.231863 L50.4,-19.231863 L52.8,-24.61644 L55.2,-24.61644 L57.6,-24.61644 L60,-24.61644 L62.4,-24.61644 L64.8,-24.61644 L67.2,-24.61644 L69.6,-24.61644 L72,-24.61644 L74.4,-24.61644 L76.8,-30.001015 L79.2,-30.001015 L81.6,-30.001015 L84,-30.001015 L86.4,-30.001015 L88.8,-30.001015 L91.2,-30.001015 L93.6,-30.001015 L96,-30.001015 L98.4,-30.001015 L100.8,-35.385593 L103.2,-35.385593 L105.6,-35.385593 L108,-35.385593 L110.4,-35.385593 L112.8,-35.385593 L115.2,-35.385593 L117.6,-35.385593 L120,-35.385593 L122.4,-35.385593 L124.8,-40.77017 L127.2,-40.77017 L129.6,-40.77017 L132,-40.77017 L134.4,-40.77017 L136.8,-40.77017 L139.2,-40.77017 L141.6,-40.77017 L144,-40.77017 L146.4,-46.154743 L148.8,-46.154743 L151.2,-51.53932 L153.6,-51.53932 L156,-51.53932 L158.4,-56.923897 L160.8,-56.923897 L163.2,-62.30847 L165.6,-62.30847 L168,-62.30847 L170.4,-67.69305 L172.8,-67.69305 L175.2,-73.07763 L177.6,-73.07763 L180,-73.07763 L182.4,-78.462204 L184.8,-78.462204 L187.2,-83.84678 L189.6,-83.84678 L192,-83.84678 L194.4,-89.23135 L196.8,-94.61593 L199.2,-100.00051 L201.6,-105.385086 L204,-105.385086 L206.4,-110.76966 L208.8,-116.154236 L211.2,-121.53881 L213.6,-126.923386 L216,-126.923386 L218.4,-132.30797 L220.8,-137.69254 L223.2,-143.07712 L225.6,-148.4617 L228,-148.4617 L230.4,-153.84627 L232.8,-159.23085 L235.2,-164.61542 L237.6,-170 L240,-170 L242.4,-170 L244.8,-175.38458 L247.2,-180.76915 L249.6,-186.15373 L252,-191.5383 L254.4,-191.5383 L256.8,-196.92288 L259.2,-202.30746 L261.6,-207.69203 L264,-213.07661 L266.4,-213.07661 L268.8,-218.46118 L271.2,-223.84576 L273.6,-229.23035 L276,-234.61491 L278.4,-234.61491 L280.8,-239.9995 L283.2,-245.38406 L285.6,-250.76865 L288,-256.15323 L290.4,-256.15323 L292.8,-256.15323 L295.2,-261.5378 L297.6,-261.5378 L300,-266.92236 L302.4,-266.92236 L304.8,-266.92236 L307.2,-272.30695 L309.6,-272.30695 L312,-277.69153 L314.4,-277.69153 L316.8,-277.69153 L319.2,-283.0761 L321.6,-283.0761 L324,-288.4607 L326.4,-288.4607 L328.8,-288.4607 L331.2,-293.84525 L333.6,-293.84525 L336,-299.22983 L338.4,-299.22983 L340.8,-299.22983 L343.2,-299.22983 L345.6,-299.22983 L348,-299.22983 L350.4,-299.22983 L352.8,-299.22983 L355.2,-299.22983 L357.6,-304.6144 L360,-304.6144 L362.4,-304.6144 L364.8,-304.6144 L367.2,-304.6144 L369.6,-304.6144 L372,-304.6144 L374.4,-304.6144 L376.8,-304.6144 L379.2,-304.6144 L381.6,-309.999 L384,-309.999 L386.4,-309.999 L388.8,-309.999 L391.2,-309.999 L393.6,-309.999 L396,-309.999 L398.4,-309.999 L400.8,-309.999 L403.2,-309.999 L405.6,-315.38358 L408,-315.38358 L410.4,-315.38358 L412.8,-315.38358 L415.2,-315.38358 L417.6,-315.38358 L420,-315.38358 L422.4,-315.38358 L424.8,-315.38358 L427.2,-315.38358 L429.6,-320.76813 L432,-320.76813 L434.4,-320.76813 L436.8,-320.76813 L439.2,-320.76813 L441.6,-320.76813 L444,-320.76813 L446.4,-320.76813 L448.8,-320.76813 L451.2,-320.76813 L453.6,-320.76813 L456,-320.76813 L458.4,-320.76813 L460.8,-320.76813 L463.2,-320.76813 L465.6,-320.76813 L468,-320.76813 L470.4,-320.76813 L472.8,-320.76813 L475.2,-320.76813 L477.6,-320.76813 L480,-320.76813" fill="none" stroke="blue" stroke-linejoin="round" stroke-width="2"/>
</g>
</g>
<g>
<g>
<line stroke="black" stroke-width="1" x1="48" x2="48" y1="0" y2="10"/>
<line stroke="black" stroke-width="1" x1="144" x2="144" y1="0" y2="10"/>
<line stroke="black" stroke-width="1" x1="240" x2="240" y1="0" y2="10"/>
<line stroke="black" stroke-width="1" x1="336" x2="336" y1="0" y2="10"/>
<line stroke="black" stroke-width="1" x1="432" x2="432" y1="0" y2="10"/>
</g>
<line stroke="black" stroke-width="1" x1="0" x2="480" y1="0" y2="0"/>
<g>
<text font-size="12" text-anchor="middle" x="48" y="20">
-4
</text>
<text font-size="12" text-anchor="middle" x="144" y="20">
-2
</text>
<text font-size="12" text-anchor="middle" x="240" y="20">
0
</text>
<text font-size="12" text-anchor="middle" x="336" y="20">
2
</text>
<text font-size="12" text-anchor="middle" x="432" y="20">
4
</text>
</g>
<text font-size="12" text-anchor="middle" x="240" y="30">

</text>
</g>
<g>
<g>
<line stroke="black" stroke-width="1" x1="0" x2="-10" y1="0.0009824652436794031" y2="0.0009824652436794031"/>
<line stroke="black" stroke-width="1" x1="0" x2="-10" y1="-68.92159460201368" y2="-68.92159460201368"/>
<line stroke="black" stroke-width="1" x1="0" x2="-10" y1="-137.84417166927105" y2="-137.84417166927105"/>
<line stroke="black" stroke-width="1" x1="0" x2="-10" y1="-206.76674873652843" y2="-206.76674873652843"/>
<line stroke="black" stroke-width="1" x1="0" x2="-10" y1="-275.6893258037858" y2="-275.6893258037858"/>
</g>
<line stroke="black" stroke-width="1" x1="0" x2="0" y1="0" y2="-340"/>
<g>
<text dominant-baseline="middle" font-size="12" text-anchor="end" x="-15" y="0.0009824652436794031">
0.00669
</text>
<text dominant-baseline="middle" font-size="12" text-anchor="end" x="-15" y="-68.92159460201368">
0.20669
</text>
<text dominant-baseline="middle" font-size="12" text-anchor="end" x="-15" y="-137.84417166927105">
0.40669
</text>
<text dominant-baseline="middle" font-size="12" text-anchor="end" x="-15" y="-206.76674873652843">
0.60669
</text>
<text dominant-baseline="middle" font-size="12" text-anchor="end" x="-15" y="-275.6893258037858">
0.80669
</text>
</g>
<text font-size="12" text-anchor="middle" transform="rotate(-90 -84 -170)" x="-84" y="-182">

</text>
</g>
</g>
</svg>