<svg viewBox="0 0 600 400" xmlns="http://www.w3.org/2000/svg">
<g transform="translate(72, 364)">
<g>
<g>
<path d="M0,-0 L0,-0 L2.4,-0.001623408 L4.8,-0.0034175334 L7.2,-0.0054003266 L9.6,-0.0075916247 L12,-0.010013351 L14.4,-0.012689733 L16.8,-0.015647542 L19.2,-0.018916368 L21.6,-0.022528905 L24,-0.026521288 L26.4,-0.030933445 L28.8,-0.0358095 L31.2,-0.04119821 L33.6,-0.047153454 L36,-0.053734776 L38.4,-0.061007965 L40.8,-0.06904572 L43.2,-0.07792837 L45.6,-0.08774468 L48,-0.09859272 L50.4,-0.110580854 L52.8,-0.123828806 L55.2,-0.13846885 L57.6,-0.15464714 L60,-0.17252512 L62.4,-0.19228117 L64.8,-0.2141123 L67.2,-0.23823616 L69.6,-0.26489317 L72,-0.29434887 L74.4,-0.3268965 L76.8,-0.36285993 L79.2,-0.4025968 L81.6,-0.44650206 L84,-0.49501163 L86.4,-0.54860693 L88.8,-0.60781914 L91.2,-0.67323476 L93.6,-0.7455009 L96,-0.8253315 L98.4,-0.9135143 L100.8,-1.010918 L103.2,-1.1185007 L105.6,-1.2373186 L108,-1.3685358 L110.4,-1.513435 L112.8,-1.6734293 L115.2,-1.8500743 L117.6,-2.0450828 L120,-2.2603393 L122.4,-2.4979155 L124.8,-2.7600896 L127.2,-3.0493631 L129.6,-3.3684833 L132,-3.720463 L134.4,-4.108606 L136.8,-4.5365286 L139.2,-5.00819 L141.6,-5.5279164 L144,-6.10043 L146.4,-6.73088 L148.8,-7.424871 L151.2,-8.188496 L153.6,-9.028362 L156,-9.951627 L158.4,-10.966019 L160.8,-12.079865 L163.2,-13.302118 L165.6,-14.642361 L168,-16.110825 L170.4,-17.718386 L172.8,-19.476553 L175.2,-21.39745 L177.6,-23.493761 L180,-25.778687 L182.4,-28.265848 L184.8,-30.969183 L187.2,-33.90281 L189.6,-37.080853 L192,-40.51724 L194.4,-44.22546 L196.8,-48.218304 L199.2,-52.507523 L201.6,-57.1035 L204,-62.014874 L206.4,-67.248146 L208.8,-72.80728 L211.2,-78.69328 L213.6,-84.90384 L216,-91.43295 L218.4,-98.27065 L220.8,-105.40281 L223.2,-112.81097 L225.6,-120.47236 L228,-128.36005 L230.4,-136.44315 L232.8,-144.68724 L235.2,-153.0549 L237.6,-161.5063 L240,-170 L242.4,-178.4937 L244.8,-186.9451 L247.2,-195.31276 L249.6,-203.55685 L252,-211.63995 L254.4,-219.52763 L256.8,-227.18904 L259.2,-234.59718 L261.6,-241.72934 L264,-248.56705 L266.4,-255.09616 L268.8,-261.3067 L271.2,-267.19272 L273.6,-272.75186 L276,-277.98514 L278.4,-282.8965 L280.8,-287.4925 L283.2,-291.7817 L285.6,-295.77454 L288,-299.48276 L290.4,-302.91916 L292.8,-306.0972 L295.2,-309.03082 L297.6,-311.73416 L300,-314.2213 L302.4,-316.50623 L304.8,-318.60254 L307.2,-320.52344 L309.6,-322.28162 L312,-323.8892 L314.4,-325.35764 L316.8,-326.69788 L319.2,-327.92014 L321.6,-329.034 L324,-330.04837 L326.4,-330.97165 L328.8,-331.8115 L331.2,-332.57513 L333.6,-333.26913 L336,-333.89957 L338.4,-334.47208 L340.8,-334.99182 L343.2,-335.46347 L345.6,-335.8914 L348,-336.27954 L350.4,-336.63153 L352.8,-336.95062 L355.2,-337.2399 L357.6,-337.50208 L360,-337.73965 L362.4,-337.95493 L364.8,-338.14993 L367.2,-338.32657 L369.6,-338.48657 L372,-338.63147 L374.4,-338.7627 L376.8,-338.8815 L379.2,-338.98907 L381.6,-339.0865 L384,-339.17468 L386.4,-339.2545 L388.8,-339.32675 L391.2,-339.39218 L393.6,-339.4514 L396,-339.50497 L398.4,-339.5535 L400.8,-339.5974 L403.2,-339.63715 L405.6,-339.6731 L408,-339.70566 L410.4,-339.7351 L412.8,-339.76175 L415.2,-339.7859 L417.6,-339.8077 L420,-339.82748 L422.4,-339.84537 L424.8,-339.86154 L427.2,-339.87616 L429.6,-339.8894 L432,-339.9014 L434.4,-339.91226 L436.8,-339.92206 L439.2,-339.93097 L441.6,-339.939 L444,-339.94626 L446.4,-339.95285 L448.8,-339.9588 L451.2,-339.9642 L453.6,-339.96906 L456,-339.97348 L458.4,-339.97748 L460.8,-339.98108 L463.2,-339.98434 L465.6,-339.9873 L468,-339.99 L470.4,-339.9924 L472.8,-339.9946 L475.2,-339.99658 L477.6,-339.99838 L480,-340" fill="none" stroke="red" stroke-linejoin="round" stroke-width="2"/>
</g>
</g>
<g>
<g>
<path d="M0,-10.610528 L0,-10.610528 L2.4,-10.610528 L4.8,-10.610528 L7.2,-10.610528 L9.6,-10.610528 L12,-10.610528 L14.4,-10.610528 L16.8,-10.610528 L19.2,-10.610528 L21.6,-10.610528 L24,-10.610528 L26.4,-10.610528 L28.8,-10.610528 L31.2,-10.610528 L33.6,-10.610528 L36,-10.610528 L38.4,-10.610528 L40.8,-10.610528 L43.2,-10.610528 L45.6,-10.610528 L48,-10.610528 L50.4,-10.610528 L52.8,-10.610528 L55.2,-15.923511 L57.6,-15.923511 L60,-15.923511 L62.4,-15.923511 L64.8,-15.923511 L67.2,-15.923511 L69.6,-15.923511 L72,-15.923511 L74.4,-15.923511 L76.8,-15.923511 L79.2,-15.923511 L81.6,-15.923511 L84,-15.923511 L86.4,-15.923511 L88.8,-15.923511 L91.2,-15.923511 L93.6,-15.923511 L96,-15.923511 L98.4,-15.923511 L100.8,-15.923511 L103.2,-21.236492 L105.6,-21.236492 L108,-21.236492 L110.4,-21.236492 L112.8,-21.236492 L115.2,-21.236492 L117.6,-21.236492 L120,-21.236492 L122.4,-21.236492 L124.8,-21.236492 L127.2,-21.236492 L129.6,-21.236492 L132,-21.236492 L134.4,-21.236492 L136.8,-21.236492 L139.2,-21.236492 L141.6,-21.236492 L144,-21.236492 L146.4,-26.549475 L148.8,-26.549475 L151.2,-26.549475 L153.6,-26.549475 L156,-26.549475 L158.4,-31.862457 L160.8,-31.862457 L163.2,-31.862457 L165.6,-31.862457 L168,-31.862457 L170.4,-37.17544 L172.8,-37.17544 L175.2,-37.17544 L177.6,-37.17544 L180,-37.17544 L182.4,-42.488422 L184.8,-42.488422 L187.2,-42.488422 L189.6,-42.488422 L192,-42.488422 L194.4,-47.801403 L196.8,-53.114388 L199.2,-58.42737 L201.6,-63.740353 L204,-63.740353 L206.4,-69.05334 L208.8,-74.36632 L211.2,-79.6793 L213.6,-84.99228 L216,-84.99228 L218.4,-95.61825 L220.8,-106.24421 L223.2,-111.55719 L225.6,-122.18316 L228,-127.49614 L230.4,-138.1221 L232.8,-148.74808 L235.2,-154.06105 L237.6,-164.68701 L240,-170 L242.4,-175.31299 L244.8,-185.93895 L247.2,-191.25192 L249.6,-201.8779 L252,-212.50386 L254.4,-217.81685 L256.8,-228.44281 L259.2,-233.75578 L261.6,-244.38176 L264,-255.00772 L266.4,-255.00772 L268.8,-260.3207 L271.2,-265.6337 L273.6,-270.94666 L276,-276.25964 L278.4,-276.25964 L280.8,-281.57263 L283.2,-286.88562 L285.6,-292.1986 L288,-297.51157 L290.4,-297.51157 L292.8,-297.51157 L295.2,-297.51157 L297.6,-297.51157 L300,-302.82455 L302.4,-302.82455 L304.8,-302.82455 L307.2,-302.82455 L309.6,-302.82455 L312,-308.13754 L314.4,-308.13754 L316.8,-308.13754 L319.2,-308.13754 L321.6,-308.13754 L324,-313.45053 L326.4,-313.45053 L328.8,-313.45053 L331.2,-313.45053 L333.6,-313.45053 L336,-318.76352 L338.4,-318.76352 L340.8,-318.76352 L343.2,-318.76352 L345.6,-318.76352 L348,-318.76352 L350.4,-318.76352 L352.8,-318.76352 L355.2,-318.76352 L357.6,-318.76352 L360,-318.76352 L362.4,-318.76352 L364.8,-318.76352 L367.2,-318.76352 L369.6,-318.76352 L372,-318.76352 L374.4,-318.76352 L376.8,-318.76352 L379.2,-324.07648 L381.6,-324.07648 L384,-324.07648 L386.4,-324.07648 L388.8,-324.07648 L391.2,-324.07648 L393.6,-324.07648 L396,-324.07648 L398.4,-324.07648 L400.8,-324.07648 L403.2,-324.07648 L405.6,-324.07648 L408,-324.07648 L410.4,-324.07648 L412.8,-324.07648 L415.2,-324.07648 L417.6,-324.07648 L420,-324.07648 L422.4,-324.07648 L424.8,-324.07648 L427.2,-329.38947 L429.6,-329.38947 L432,-329.38947 L434.4,-329.38947 L436.8,-329.38947 L439.2,-329.38947 L441.6,-329.38947 L444,-329.38947 L446.4,-329.38947 L448.8,-329.38947 L451.2,-329.38947 L453.6,-329.38947 L456,-329.38947 L458.4,-329.38947 L460.8,-329.38947 L463.2,-329.38947 L465.6,-329.38947 L468,-329.38947 L470.4,-329.38947 L472.8,-329.38947 L475.2,-329.38947 L477.6,-329.38947 L480,-329.38947" fill="none" stroke="blue" stroke-linejoin="round" stroke-width="2"/>
</g>
</g>
<g>
<g>
<line stroke="black" stroke-width="1" x1="48" x2="48" y1="0" y2="10"/>
<line stroke="black" stroke-width="1" x1="144" x2="144" y1="0" y2="10"/>
<line stroke="black" stroke-width="1" x1="240" x2="240" y1="0" y2="10"/>
<line stroke="black" stroke-width="1" x1="336" x2="336" y1="0" y2="10"/>
<line stroke="black" stroke-width="1" x1="432" x2="432" y1="0" y2="10"/>
</g>
<line stroke="black" stroke-width="1" x1="0" x2="480" y1="0" y2="0"/>
<g>
<text font-size="12" text-anchor="middle" x="48" y="20">
-4
</text>
<text font-size="12" text-anchor="middle" x="144" y="20">
-2
</text>
<text font-size="12" text-anchor="middle" x="240" y="20">
0
</text>
<text font-size="12" text-anchor="middle" x="336" y="20">
2
</text>
<text font-size="12" text-anchor="middle" x="432" y="20">
4
</text>
</g>
<text font-size="12" text-anchor="middle" x="240" y="30">

</text>
</g>
<g>
<g>
<line stroke="black" stroke-width="1" x1="0" x2="-10" y1="-33.987650658445354" y2="-33.987650658445354"/>
<line stroke="black" stroke-width="1" x1="0" x2="-10" y1="-101.99382532922267" y2="-101.99382532922267"/>
<line stroke="black" stroke-width="1" x1="0" x2="-10" y1="-170" y2="-170"/>
<line stroke="black" stroke-width="1" x1="0" x2="-10" y1="-238.0061746707773" y2="-238.0061746707773"/>
<line stroke="black" stroke-width="1" x1="0" x2="-10" y1="-306.0123493415547" y2="-306.0123493415547"/>
</g>
<line stroke="black" stroke-width="1" x1="0" x2="0" y1="0" y2="-340"/>
<g>
<text dominant-baseline="middle" font-size="12" text-anchor="end" x="-15" y="-33.987650658445354">
-0.8
</text>
<text dominant-baseline="middle" font-size="12" text-anchor="end" x="-15" y="-101.99382532922267">
-0.4
</text>
<text dominant-baseline="middle" font-size="12" text-anchor="end" x="-15" y="-170">
0
</text>
<text dominant-baseline="middle" font-size="12" text-anchor="end" x="-15" y="-238.0061746707773">
0.4
</text>
<text dominant-baseline="middle" font-size="12" text-anchor="end" x="-15" y="-306.0123493415547">
0.8
</text>
</g>
<text font-size="12" text-anchor="middle" transform="rotate(-90 -48 -170)" x="-48" y="-182">

</text>
</g>
</g>
</svg>